<svg width="24" height="24" viewBox="0 0 18 18" fill="none" xmlns="http://www.w3.org/2000/svg">
  <path d="M9 2c0 2-3 3.5-3 6.5C6 11 7.3 12.5 9 13c1.7-.5 3-2 3-4.5C12 5.5 9 4 9 2Z" stroke="currentColor" stroke-width="1.3" stroke-linejoin="round"/>
  <path d="M9 6c0 1.2-1.5 2-1.5 3.5 0 1 .6 1.7 1.5 2 .9-.3 1.5-1 1.5-2C10.5 8 9 7.2 9 6Z" fill="currentColor"/>
  <line x1="5" y1="15" x2="7" y2="13.5" stroke="currentColor" stroke-width="1.3" stroke-linecap="round"/>
  <line x1="13" y1="15" x2="11" y2="13.5" stroke="currentColor" stroke-width="1.3" stroke-linecap="round"/>
  <line x1="3.5" y1="16" x2="14.5" y2="16" stroke="currentColor" stroke-width="1.3" stroke-linecap="round"/>
</svg>
