<svg width="128" height="128" viewBox="0 0 128 128" fill="none" xmlns="http://www.w3.org/2000/svg">
<rect width="128" height="128" rx="19" fill="#2D283F"/>
<path d="M113.353 67.3841L108.442 66.4449L113.353 67.3841ZM113.023 69.11L117.934 70.0491L113.023 69.11ZM112.454 72.4188L117.396 73.1738L112.454 72.4188ZM112.191 74.1367L117.134 74.8918L112.191 74.1367ZM111.929 75.8547L106.986 75.0996L111.929 75.8547ZM111.048 79.0524L115.68 80.9352L111.048 79.0524ZM110.393 80.6627L115.025 82.5455L110.393 80.6627ZM109.739 82.273L105.107 80.3902L109.739 82.273ZM108.419 85.3447L103.865 83.2815L108.419 85.3447ZM107.7 86.9314L112.255 88.9946L107.7 86.9314ZM106.981 88.5182L102.427 86.455L106.981 88.5182ZM105.483 91.5464L101.078 89.1797L105.483 91.5464ZM103.801 94.6764L99.3965 92.3097L103.801 94.6764ZM101.629 97.214L98.6084 93.2294L101.629 97.214ZM100.209 98.2902L103.23 102.275L100.209 98.2902ZM98.7895 99.3663L95.7691 95.3818L98.7895 99.3663ZM96.2588 101.641L92.6159 98.2166L96.2588 101.641ZM95.0444 102.933L98.6874 106.358L95.0444 102.933ZM93.8301 104.225L90.1871 100.8L93.8301 104.225ZM91.1515 106.241L88.8712 101.791L91.1515 106.241ZM88.0043 107.853L85.7241 103.404L88.0043 107.853ZM84.9748 109.394L82.7211 104.931L84.9748 109.394ZM83.3951 110.192L85.6487 114.655L83.3951 110.192ZM81.8154 110.99L79.5618 106.526L81.8154 110.99ZM78.5964 111.913L79.0558 116.892L78.5964 111.913ZM75.0549 112.24L75.5143 117.219L75.0549 112.24ZM71.7098 112.781L70.5711 107.913V107.913L71.7098 112.781ZM69.9989 113.181L71.1376 118.05L69.9989 113.181ZM68.288 113.581L69.4267 118.45V118.45L68.288 113.581ZM64.94 114.094L64.5658 109.108L64.94 114.094ZM63.1663 114.227L62.7921 109.241L63.1663 114.227ZM61.3926 114.36L61.7668 119.346L61.3926 114.36ZM58.0291 114.084L59.2127 109.226L58.0291 114.084ZM56.302 113.663L55.1183 118.521L56.302 113.663ZM54.5749 113.242L53.3912 118.1L54.5749 113.242ZM51.3344 112.249L53.0807 107.563L51.3344 112.249ZM44.9343 109.741L46.9952 105.186L44.9343 109.741ZM43.3441 109.022L41.2832 113.577L43.3441 109.022ZM41.7538 108.303L39.693 112.858L41.7538 108.303ZM38.8874 106.606L41.89 102.608L38.8874 106.606ZM37.4943 105.56L34.4917 109.558L37.4943 105.56ZM36.1011 104.514L33.0986 108.512L36.1011 104.514ZM33.4995 102.43L36.7454 98.6272L33.4995 102.43ZM32.1848 101.308L28.9389 105.111L32.1848 101.308ZM30.8701 100.186L27.6242 103.989L30.8701 100.186ZM28.5013 97.8689L32.2322 94.5402L28.5013 97.8689ZM27.3505 96.5791L23.6196 99.9078L27.3505 96.5791ZM26.1998 95.2893L29.9307 91.9606L26.1998 95.2893ZM24.0145 92.7592L20.1792 95.9671L24.0145 92.7592ZM21.767 90.0722L17.9317 93.2801L21.767 90.0722ZM19.7592 87.3422L23.9613 84.6325L19.7592 87.3422ZM17.8273 84.3462L22.0294 81.6365L17.8273 84.3462ZM16.7302 81.1866L21.7063 80.6979L16.7302 81.1866ZM16.5544 79.3962L11.5783 79.8849L16.5544 79.3962ZM16.3785 77.6057L21.3546 77.117L16.3785 77.6057ZM14.377 70.9355L9.68804 72.6715L14.377 70.9355ZM13.7313 67.6238L8.73357 67.7732L13.7313 67.6238ZM14.5179 57.2141L19.4362 58.1146L14.5179 57.2141ZM16.3728 50.5977L21.1442 52.0924L16.3728 50.5977ZM17.2283 47.3149L12.3353 46.2861L17.2283 47.3149ZM19.4671 40.8576L23.1908 44.1944L19.4671 40.8576ZM23.9228 35.492L19.7223 32.7799L23.9228 35.492ZM27.9064 29.9652L24.3608 26.4399L27.9064 29.9652ZM30.3716 27.4858L26.8259 23.9605L30.3716 27.4858ZM32.9228 25.321L30.0219 21.2486L32.9228 25.321ZM34.3456 24.3075L37.2465 28.3799L34.3456 24.3075ZM35.7683 23.2941L32.8673 19.2217L35.7683 23.2941ZM47.6821 16.3044L50.3458 20.5358L47.6821 16.3044ZM54.308 14.2461L53.2318 9.3633L54.308 14.2461ZM57.6971 14.0164L57.2909 18.9999L57.6971 14.0164ZM71.4262 15.2524L72.4547 10.3594L71.4262 15.2524ZM73.1244 15.6094L72.0959 20.5025L73.1244 15.6094ZM78.1531 16.5488L77.4551 21.4999L78.1531 16.5488ZM81.6896 17.0474L80.9915 21.9985L81.6896 17.0474ZM84.8671 18.1349L87.3545 13.7976L84.8671 18.1349ZM87.9449 19.9L85.4575 24.2374L87.9449 19.9ZM90.7187 21.8358L87.5029 25.6645L90.7187 21.8358ZM93.4148 24.1003L96.6305 20.2716L93.4148 24.1003ZM97.4998 27.2304L94.5463 31.2649L97.4998 27.2304ZM101.334 30.6066L97.3975 33.6892L101.334 30.6066ZM102.421 31.9949L106.358 28.9122L102.421 31.9949ZM103.508 33.3832L107.445 30.3005L103.508 33.3832ZM105.329 36.2139L100.889 38.5143L105.329 36.2139ZM106.136 37.7719L101.696 40.0722L106.136 37.7719ZM106.943 39.3299L102.504 41.6302L106.943 39.3299ZM108.623 42.2718L112.861 39.6189L108.623 42.2718ZM109.565 43.7758L105.327 46.4287L109.565 43.7758ZM110.506 45.2798L106.268 47.9327L110.506 45.2798ZM111.872 48.3649L116.685 47.0121L111.872 48.3649ZM112.831 51.7788L108.017 53.1315L112.831 51.7788ZM113.253 55.1246L108.254 55.0105L113.253 55.1246ZM113.212 56.9001L118.211 57.0142L113.212 56.9001ZM113.172 58.6755L108.173 58.5613L113.172 58.6755ZM113.557 61.2679L118.067 59.1089L113.557 61.2679ZM113.999 62.1906L118.509 60.0317L113.999 62.1906ZM114.441 63.1134L109.931 65.2724L114.441 63.1134ZM113.683 65.6582L108.772 64.719L113.683 65.6582ZM113.353 67.3841L108.442 66.4449L108.112 68.1708L113.023 69.11L117.934 70.0491L118.264 68.3232L113.353 67.3841ZM113.023 69.11L108.112 68.1708C107.889 69.3368 107.688 70.5011 107.511 71.6637L112.454 72.4188L117.396 73.1738C117.555 72.1357 117.734 71.0941 117.934 70.0491L113.023 69.11ZM112.454 72.4188L107.511 71.6637L107.248 73.3817L112.191 74.1367L117.134 74.8918L117.396 73.1738L112.454 72.4188ZM112.191 74.1367L107.248 73.3817L106.986 75.0996L111.929 75.8547L116.871 76.6097L117.134 74.8918L112.191 74.1367ZM111.929 75.8547L106.986 75.0996C106.877 75.8132 106.688 76.5006 106.416 77.1696L111.048 79.0524L115.68 80.9352C116.246 79.5414 116.644 78.097 116.871 76.6097L111.929 75.8547ZM111.048 79.0524L106.416 77.1696L105.761 78.7799L110.393 80.6627L115.025 82.5455L115.68 80.9352L111.048 79.0524ZM110.393 80.6627L105.761 78.7799L105.107 80.3902L109.739 82.273L114.371 84.1557L115.025 82.5455L110.393 80.6627ZM109.739 82.273L105.107 80.3902C104.712 81.3608 104.298 82.3246 103.865 83.2815L108.419 85.3447L112.974 87.4079C113.461 86.332 113.927 85.2479 114.371 84.1557L109.739 82.273ZM108.419 85.3447L103.865 83.2815L103.146 84.8682L107.7 86.9314L112.255 88.9946L112.974 87.4079L108.419 85.3447ZM107.7 86.9314L103.146 84.8682L102.427 86.455L106.981 88.5182L111.536 90.5814L112.255 88.9946L107.7 86.9314ZM106.981 88.5182L102.427 86.455C102.014 87.3665 101.565 88.2747 101.078 89.1797L105.483 91.5464L109.887 93.9131C110.478 92.8132 111.028 91.7027 111.536 90.5814L106.981 88.5182ZM105.483 91.5464L101.078 89.1797L100.237 90.7447L104.642 93.1114L109.046 95.4781L109.887 93.9131L105.483 91.5464ZM104.642 93.1114L100.237 90.7447L99.3965 92.3097L103.801 94.6764L108.205 97.0432L109.046 95.4781L104.642 93.1114ZM103.801 94.6764L99.3965 92.3097C99.1986 92.678 98.9472 92.9726 98.6084 93.2294L101.629 97.214L104.649 101.199C106.129 100.077 107.326 98.6797 108.205 97.0432L103.801 94.6764ZM101.629 97.214L98.6084 93.2294L97.1887 94.3056L100.209 98.2902L103.23 102.275L104.649 101.199L101.629 97.214ZM100.209 98.2902L97.1887 94.3056L95.7691 95.3818L98.7895 99.3663L101.81 103.351L103.23 102.275L100.209 98.2902ZM98.7895 99.3663L95.7691 95.3818C94.638 96.2391 93.5861 97.1846 92.6159 98.2166L96.2588 101.641L99.9017 105.066C100.487 104.443 101.122 103.872 101.81 103.351L98.7895 99.3663ZM96.2588 101.641L92.6159 98.2166L91.4015 99.5083L95.0444 102.933L98.6874 106.358L99.9017 105.066L96.2588 101.641ZM95.0444 102.933L91.4015 99.5083L90.1871 100.8L93.8301 104.225L97.473 107.65L98.6874 106.358L95.0444 102.933ZM93.8301 104.225L90.1871 100.8C89.8004 101.211 89.3681 101.536 88.8712 101.791L91.1515 106.241L93.4317 110.69C94.9506 109.912 96.3041 108.893 97.473 107.65L93.8301 104.225ZM91.1515 106.241L88.8712 101.791L87.2977 102.597L89.5779 107.047L91.8582 111.497L93.4317 110.69L91.1515 106.241ZM89.5779 107.047L87.2977 102.597L85.7241 103.404L88.0043 107.853L90.2846 112.303L91.8582 111.497L89.5779 107.047ZM88.0043 107.853L85.7241 103.404C84.7251 103.916 83.7241 104.425 82.7211 104.931L84.9748 109.394L87.2284 113.858C88.2491 113.342 89.2678 112.824 90.2846 112.303L88.0043 107.853ZM84.9748 109.394L82.7211 104.931L81.1414 105.729L83.3951 110.192L85.6487 114.655L87.2284 113.858L84.9748 109.394ZM83.3951 110.192L81.1414 105.729L79.5618 106.526L81.8154 110.99L84.069 115.453L85.6487 114.655L83.3951 110.192ZM81.8154 110.99L79.5618 106.526C79.1132 106.753 78.6492 106.887 78.137 106.934L78.5964 111.913L79.0558 116.892C80.812 116.73 82.494 116.248 84.069 115.453L81.8154 110.99ZM78.5964 111.913L78.137 106.934L76.3663 107.097L76.8256 112.076L77.285 117.055L79.0558 116.892L78.5964 111.913ZM76.8256 112.076L76.3663 107.097L74.5955 107.261L75.0549 112.24L75.5143 117.219L77.285 117.055L76.8256 112.076ZM75.0549 112.24L74.5955 107.261C73.2354 107.386 71.8933 107.603 70.5711 107.913L71.7098 112.781L72.8485 117.65C73.7181 117.446 74.6061 117.302 75.5143 117.219L75.0549 112.24ZM71.7098 112.781L70.5711 107.913L68.8602 108.313L69.9989 113.181L71.1376 118.05L72.8485 117.65L71.7098 112.781ZM69.9989 113.181L68.8602 108.313L67.1493 108.713L68.288 113.581L69.4267 118.45L71.1376 118.05L69.9989 113.181ZM68.288 113.581L67.1493 108.713C66.3079 108.91 65.4476 109.042 64.5658 109.108L64.94 114.094L65.3143 119.08C66.7047 118.975 68.0763 118.766 69.4267 118.45L68.288 113.581ZM64.94 114.094L64.5658 109.108L62.7921 109.241L63.1663 114.227L63.5405 119.213L65.3143 119.08L64.94 114.094ZM63.1663 114.227L62.7921 109.241L61.0183 109.374L61.3926 114.36L61.7668 119.346L63.5405 119.213L63.1663 114.227ZM61.3926 114.36L61.0183 109.374C60.4047 109.42 59.8093 109.371 59.2127 109.226L58.0291 114.084L56.8454 118.942C58.4613 119.335 60.1082 119.471 61.7668 119.346L61.3926 114.36ZM58.0291 114.084L59.2127 109.226L57.4856 108.805L56.302 113.663L55.1183 118.521L56.8454 118.942L58.0291 114.084ZM56.302 113.663L57.4856 108.805L55.7585 108.384L54.5749 113.242L53.3912 118.1L55.1183 118.521L56.302 113.663ZM54.5749 113.242L55.7585 108.384C54.8407 108.161 53.9485 107.887 53.0807 107.563L51.3344 112.249L49.5882 116.934C50.8284 117.396 52.0965 117.785 53.3912 118.1L54.5749 113.242ZM51.3344 112.249L53.0807 107.563L51.4351 106.95L49.6889 111.635L47.9426 116.32L49.5882 116.934L51.3344 112.249ZM49.6889 111.635L51.4351 106.95L49.7895 106.337L48.0433 111.022L46.297 115.707L47.9426 116.32L49.6889 111.635ZM48.0433 111.022L49.7895 106.337C48.8411 105.983 47.9098 105.6 46.9952 105.186L44.9343 109.741L42.8735 114.297C43.9961 114.805 45.1373 115.275 46.297 115.707L48.0433 111.022ZM44.9343 109.741L46.9952 105.186L45.4049 104.466L43.3441 109.022L41.2832 113.577L42.8735 114.297L44.9343 109.741ZM43.3441 109.022L45.4049 104.466L43.8147 103.747L41.7538 108.303L39.693 112.858L41.2832 113.577L43.3441 109.022ZM41.7538 108.303L43.8147 103.747C43.1288 103.437 42.4892 103.058 41.89 102.608L38.8874 106.606L35.8849 110.604C37.0703 111.494 38.3416 112.247 39.693 112.858L41.7538 108.303ZM38.8874 106.606L41.89 102.608L40.4968 101.562L37.4943 105.56L34.4917 109.558L35.8849 110.604L38.8874 106.606ZM37.4943 105.56L40.4968 101.562L39.1037 100.516L36.1011 104.514L33.0986 108.512L34.4917 109.558L37.4943 105.56ZM36.1011 104.514L39.1037 100.516C38.2938 99.9074 37.5078 99.2779 36.7454 98.6272L33.4995 102.43L30.2535 106.234C31.1754 107.02 32.1238 107.78 33.0986 108.512L36.1011 104.514ZM33.4995 102.43L36.7454 98.6272L35.4307 97.5052L32.1848 101.308L28.9389 105.111L30.2535 106.234L33.4995 102.43ZM32.1848 101.308L35.4307 97.5052L34.1161 96.3831L30.8701 100.186L27.6242 103.989L28.9389 105.111L32.1848 101.308ZM30.8701 100.186L34.1161 96.3831C33.4462 95.8114 32.8186 95.1974 32.2322 94.5402L28.5013 97.8689L24.7704 101.198C25.6582 102.193 26.6099 103.124 27.6242 103.989L30.8701 100.186ZM28.5013 97.8689L32.2322 94.5402L31.0815 93.2504L27.3505 96.5791L23.6196 99.9078L24.7704 101.198L28.5013 97.8689ZM27.3505 96.5791L31.0815 93.2504L29.9307 91.9606L26.1998 95.2893L22.4689 98.618L23.6196 99.9078L27.3505 96.5791ZM26.1998 95.2893L29.9307 91.9606C29.2295 91.1746 28.5358 90.3716 27.8497 89.5513L24.0145 92.7592L20.1792 95.9671C20.9327 96.868 21.6959 97.7516 22.4689 98.618L26.1998 95.2893ZM24.0145 92.7592L27.8497 89.5513L26.726 88.2078L22.8907 91.4157L19.0554 94.6236L20.1792 95.9671L24.0145 92.7592ZM22.8907 91.4157L26.726 88.2078L25.6022 86.8643L21.767 90.0722L17.9317 93.2801L19.0554 94.6236L22.8907 91.4157ZM21.767 90.0722L25.6022 86.8643C25.0172 86.1649 24.4701 85.4215 23.9613 84.6325L19.7592 87.3422L15.5571 90.0518C16.2857 91.1818 17.0772 92.2585 17.9317 93.2801L21.767 90.0722ZM19.7592 87.3422L23.9613 84.6325L22.9954 83.1345L18.7933 85.8442L14.5912 88.5538L15.5571 90.0518L19.7592 87.3422ZM18.7933 85.8442L22.9954 83.1345L22.0294 81.6365L17.8273 84.3462L13.6252 87.0558L14.5912 88.5538L18.7933 85.8442ZM17.8273 84.3462L22.0294 81.6365C21.8457 81.3517 21.742 81.0611 21.7063 80.6979L16.7302 81.1866L11.7542 81.6754C11.9438 83.6058 12.5714 85.4216 13.6252 87.0558L17.8273 84.3462ZM16.7302 81.1866L21.7063 80.6979L21.5304 78.9074L16.5544 79.3962L11.5783 79.8849L11.7542 81.6754L16.7302 81.1866ZM16.5544 79.3962L21.5304 78.9074L21.3546 77.117L16.3785 77.6057L11.4025 78.0944L11.5783 79.8849L16.5544 79.3962ZM16.3785 77.6057L21.3546 77.117C21.2005 75.5477 20.8504 74.0195 20.3039 72.5432L15.6149 74.2792L10.9259 76.0151C11.1723 76.6805 11.3313 77.3699 11.4025 78.0944L16.3785 77.6057ZM15.6149 74.2792L20.3039 72.5432L19.6849 70.8714L14.996 72.6073L10.307 74.3433L10.9259 76.0151L15.6149 74.2792ZM14.996 72.6073L19.6849 70.8714L19.066 69.1996L14.377 70.9355L9.68804 72.6715L10.307 74.3433L14.996 72.6073ZM14.377 70.9355L19.066 69.1996C18.8571 68.6353 18.7468 68.0671 18.7291 67.4744L13.7313 67.6238L8.73357 67.7732C8.78384 69.4544 9.10404 71.094 9.68804 72.6715L14.377 70.9355ZM13.7313 67.6238L18.7291 67.4744L18.676 65.6993L13.6783 65.8487L8.6805 65.9982L8.73357 67.7732L13.7313 67.6238ZM13.6783 65.8487L18.676 65.6993L18.623 63.9242L13.6252 64.0737L8.62742 64.2231L8.6805 65.9982L13.6783 65.8487ZM13.6252 64.0737L18.623 63.9242C18.5994 63.1379 18.6581 62.3638 18.7987 61.5962L13.8804 60.6957L8.9622 59.7951C8.69442 61.2576 8.58294 62.7356 8.62742 64.2231L13.6252 64.0737ZM13.8804 60.6957L18.7987 61.5962L19.1174 59.8554L14.1992 58.9549L9.28095 58.0543L8.9622 59.7951L13.8804 60.6957ZM14.1992 58.9549L19.1174 59.8554L19.4362 58.1146L14.5179 57.2141L9.5997 56.3135L9.28095 58.0543L14.1992 58.9549ZM14.5179 57.2141L19.4362 58.1146C19.604 57.1981 19.8248 56.3043 20.0981 55.4319L15.3267 53.9372L10.5554 52.4426C10.1586 53.7092 9.84022 54.9999 9.5997 56.3135L14.5179 57.2141ZM15.3267 53.9372L20.0981 55.4319L20.6212 53.7621L15.8498 52.2675L11.0784 50.7728L10.5554 52.4426L15.3267 53.9372ZM15.8498 52.2675L20.6212 53.7621L21.1442 52.0924L16.3728 50.5977L11.6015 49.1031L11.0784 50.7728L15.8498 52.2675ZM16.3728 50.5977L21.1442 52.0924C21.5282 50.8666 21.8537 49.6167 22.1213 48.3437L17.2283 47.3149L12.3353 46.2861C12.1324 47.2511 11.8875 48.1898 11.6015 49.1031L16.3728 50.5977ZM17.2283 47.3149L22.1213 48.3437L22.4887 46.5967L17.5957 45.5679L12.7027 44.539L12.3353 46.2861L17.2283 47.3149ZM17.5957 45.5679L22.4887 46.5967L22.856 44.8496L17.963 43.8208L13.07 42.792L12.7027 44.539L17.5957 45.5679ZM17.963 43.8208L22.856 44.8496C22.9097 44.5942 23.0054 44.4013 23.1908 44.1944L19.4671 40.8576L15.7434 37.5209C14.3939 39.0268 13.4869 40.8093 13.07 42.792L17.963 43.8208ZM19.4671 40.8576L23.1908 44.1944L24.3889 42.8574L20.6652 39.5206L16.9414 36.1839L15.7434 37.5209L19.4671 40.8576ZM20.6652 39.5206L24.3889 42.8574L25.587 41.5203L21.8633 38.1836L18.1395 34.8468L16.9414 36.1839L20.6652 39.5206ZM21.8633 38.1836L25.587 41.5203C26.5242 40.4744 27.3712 39.369 28.1233 38.2041L23.9228 35.492L19.7223 32.7799C19.2631 33.491 18.7371 34.1799 18.1395 34.8468L21.8633 38.1836ZM23.9228 35.492L28.1233 38.2041L29.0688 36.7398L24.8683 34.0276L20.6678 31.3155L19.7223 32.7799L23.9228 35.492ZM24.8683 34.0276L29.0688 36.7398L30.0143 35.2754L25.8138 32.5633L21.6132 29.8511L20.6678 31.3155L24.8683 34.0276ZM25.8138 32.5633L30.0143 35.2754C30.43 34.6315 30.9079 34.0379 31.4521 33.4906L27.9064 29.9652L24.3608 26.4399C23.3259 27.4807 22.4087 28.6191 21.6132 29.8511L25.8138 32.5633ZM27.9064 29.9652L31.4521 33.4906L32.6847 32.2509L29.139 28.7255L25.5933 25.2002L24.3608 26.4399L27.9064 29.9652ZM29.139 28.7255L32.6847 32.2509L33.9173 31.0112L30.3716 27.4858L26.8259 23.9605L25.5933 25.2002L29.139 28.7255ZM30.3716 27.4858L33.9173 31.0112C34.5079 30.4172 35.1426 29.8786 35.8238 29.3934L32.9228 25.321L30.0219 21.2486C28.8804 22.0617 27.8144 22.9663 26.8259 23.9605L30.3716 27.4858ZM32.9228 25.321L35.8238 29.3934L37.2465 28.3799L34.3456 24.3075L31.4446 20.2351L30.0219 21.2486L32.9228 25.321ZM34.3456 24.3075L37.2465 28.3799L38.6692 27.3665L35.7683 23.2941L32.8673 19.2217L31.4446 20.2351L34.3456 24.3075ZM35.7683 23.2941L38.6692 27.3665C39.3985 26.847 40.1566 26.3804 40.9446 25.9656L38.6157 21.5411L36.2869 17.1165C35.1009 17.7408 33.9606 18.4428 32.8673 19.2217L35.7683 23.2941ZM38.6157 21.5411L40.9446 25.9656L42.4855 25.1545L40.1567 20.73L37.8279 16.3055L36.2869 17.1165L38.6157 21.5411ZM40.1567 20.73L42.4855 25.1545L44.0265 24.3434L41.6977 19.9189L39.3688 15.4944L37.8279 16.3055L40.1567 20.73ZM41.6977 19.9189L44.0265 24.3434C45.1312 23.762 46.2235 23.1308 47.3034 22.451L44.6397 18.2196L41.976 13.9882C41.1073 14.5351 40.2382 15.0368 39.3688 15.4944L41.6977 19.9189ZM44.6397 18.2196L47.3034 22.451L48.8246 21.4934L46.1609 17.262L43.4972 13.0306L41.976 13.9882L44.6397 18.2196ZM46.1609 17.262L48.8246 21.4934L50.3458 20.5358L47.6821 16.3044L45.0184 12.073L43.4972 13.0306L46.1609 17.262ZM47.6821 16.3044L50.3458 20.5358C50.8356 20.2274 51.3448 20.0192 51.8957 19.8978L50.8195 15.015L49.7433 10.1322C48.0597 10.5033 46.4773 11.1546 45.0184 12.073L47.6821 16.3044ZM50.8195 15.015L51.8957 19.8978L53.6399 19.5134L52.5638 14.6306L51.4876 9.74774L49.7433 10.1322L50.8195 15.015ZM52.5638 14.6306L53.6399 19.5134L55.3842 19.1289L54.308 14.2461L53.2318 9.3633L51.4876 9.74774L52.5638 14.6306ZM54.308 14.2461L55.3842 19.1289C56.0143 18.9901 56.6443 18.9472 57.2909 18.9999L57.6971 14.0164L58.1033 9.03293C56.4656 8.89944 54.8363 9.00969 53.2318 9.3633L54.308 14.2461ZM57.6971 14.0164L57.2909 18.9999L59.074 19.1452L59.4802 14.1618L59.8864 9.17828L58.1033 9.03293L57.6971 14.0164ZM59.4802 14.1618L59.074 19.1452L60.8571 19.2906L61.2633 14.3071L61.6696 9.32363L59.8864 9.17828L59.4802 14.1618ZM61.2633 14.3071L60.8571 19.2906C62.0212 19.3855 63.1716 19.4715 64.3084 19.5486L64.647 14.5601L64.9855 9.5716C63.8951 9.49759 62.7898 9.41494 61.6696 9.32363L61.2633 14.3071ZM64.647 14.5601L64.3084 19.5486L66.047 19.6666L66.3856 14.6781L66.7241 9.6896L64.9855 9.5716L64.647 14.5601ZM66.3856 14.6781L66.047 19.6666L67.7856 19.7846L68.1242 14.7961L68.4627 9.8076L66.7241 9.6896L66.3856 14.6781ZM68.1242 14.7961L67.7856 19.7846C68.6683 19.8445 69.5384 19.9649 70.3977 20.1455L71.4262 15.2524L72.4547 10.3594C71.1385 10.0827 69.8073 9.89885 68.4627 9.8076L68.1242 14.7961ZM71.4262 15.2524L70.3977 20.1455L72.0959 20.5025L73.1244 15.6094L74.1529 10.7163L72.4547 10.3594L71.4262 15.2524ZM73.1244 15.6094L72.0959 20.5025L73.7941 20.8594L74.8226 15.9664L75.8511 11.0733L74.1529 10.7163L73.1244 15.6094ZM74.8226 15.9664L73.7941 20.8594C74.9945 21.1117 76.2149 21.325 77.4551 21.4999L78.1531 16.5488L78.8512 11.5978C77.8262 11.4533 76.8263 11.2783 75.8511 11.0733L74.8226 15.9664ZM78.1531 16.5488L77.4551 21.4999L79.2233 21.7492L79.9214 16.7981L80.6194 11.8471L78.8512 11.5978L78.1531 16.5488ZM79.9214 16.7981L79.2233 21.7492L80.9915 21.9985L81.6896 17.0474L82.3876 12.0964L80.6194 11.8471L79.9214 16.7981ZM81.6896 17.0474L80.9915 21.9985C81.4983 22.0699 81.9496 22.2257 82.3796 22.4723L84.8671 18.1349L87.3545 13.7976C85.8131 12.9136 84.146 12.3443 82.3876 12.0964L81.6896 17.0474ZM84.8671 18.1349L82.3796 22.4723L83.9185 23.3548L86.406 19.0175L88.8934 14.6801L87.3545 13.7976L84.8671 18.1349ZM86.406 19.0175L83.9185 23.3548L85.4575 24.2374L87.9449 19.9L90.4323 15.5627L88.8934 14.6801L86.406 19.0175ZM87.9449 19.9L85.4575 24.2374C86.1878 24.6562 86.8684 25.1316 87.5029 25.6645L90.7187 21.8358L93.9344 18.0071C92.842 17.0896 91.6734 16.2744 90.4323 15.5627L87.9449 19.9ZM90.7187 21.8358L87.5029 25.6645L88.851 26.7967L92.0667 22.968L95.2825 19.1393L93.9344 18.0071L90.7187 21.8358ZM92.0667 22.968L88.851 26.7967L90.199 27.929L93.4148 24.1003L96.6305 20.2716L95.2825 19.1393L92.0667 22.968ZM93.4148 24.1003L90.199 27.929C91.1477 28.7258 92.1226 29.4906 93.1235 30.2233L96.077 26.1888L99.0304 22.1543C98.2086 21.5527 97.4087 20.9252 96.6305 20.2716L93.4148 24.1003ZM96.077 26.1888L93.1235 30.2233L94.5463 31.2649L97.4998 27.2304L100.453 23.1959L99.0304 22.1543L96.077 26.1888ZM97.4998 27.2304L94.5463 31.2649L95.9691 32.3065L98.9226 28.272L101.876 24.2375L100.453 23.1959L97.4998 27.2304ZM98.9226 28.272L95.9691 32.3065C96.5107 32.7029 96.9837 33.1608 97.3975 33.6892L101.334 30.6066L105.271 27.5239C104.292 26.2738 103.157 25.1754 101.876 24.2375L98.9226 28.272ZM101.334 30.6066L97.3975 33.6892L98.4846 35.0776L102.421 31.9949L106.358 28.9122L105.271 27.5239L101.334 30.6066ZM102.421 31.9949L98.4846 35.0776L99.5718 36.4659L103.508 33.3832L107.445 30.3005L106.358 28.9122L102.421 31.9949ZM103.508 33.3832L99.5718 36.4659C100.078 37.1117 100.516 37.7935 100.889 38.5143L105.329 36.2139L109.768 33.9136C109.107 32.6385 108.332 31.4331 107.445 30.3005L103.508 33.3832ZM105.329 36.2139L100.889 38.5143L101.696 40.0722L106.136 37.7719L110.575 35.4716L109.768 33.9136L105.329 36.2139ZM106.136 37.7719L101.696 40.0722L102.504 41.6302L106.943 39.3299L111.383 37.0296L110.575 35.4716L106.136 37.7719ZM106.943 39.3299L102.504 41.6302C103.084 42.7497 103.711 43.8479 104.385 44.9247L108.623 42.2718L112.861 39.6189C112.329 38.769 111.837 37.906 111.383 37.0296L106.943 39.3299ZM108.623 42.2718L104.385 44.9247L105.327 46.4287L109.565 43.7758L113.803 41.1229L112.861 39.6189L108.623 42.2718ZM109.565 43.7758L105.327 46.4287L106.268 47.9327L110.506 45.2798L114.744 42.6269L113.803 41.1229L109.565 43.7758ZM110.506 45.2798L106.268 47.9327C106.618 48.4926 106.88 49.0832 107.058 49.7176L111.872 48.3649L116.685 47.0121C116.249 45.4599 115.6 43.9937 114.744 42.6269L110.506 45.2798ZM111.872 48.3649L107.058 49.7176L107.538 51.4246L112.351 50.0718L117.165 48.7191L116.685 47.0121L111.872 48.3649ZM112.351 50.0718L107.538 51.4246L108.017 53.1315L112.831 51.7788L117.645 50.4261L117.165 48.7191L112.351 50.0718ZM112.831 51.7788L108.017 53.1315C108.19 53.747 108.269 54.3679 108.254 55.0105L113.253 55.1246L118.252 55.2388C118.289 53.6069 118.086 51.9973 117.645 50.4261L112.831 51.7788ZM113.253 55.1246L108.254 55.0105L108.214 56.7859L113.212 56.9001L118.211 57.0142L118.252 55.2388L113.253 55.1246ZM113.212 56.9001L108.214 56.7859L108.173 58.5613L113.172 58.6755L118.171 58.7896L118.211 57.0142L113.212 56.9001ZM113.172 58.6755L108.173 58.5613C108.141 59.9853 108.261 61.7836 109.047 63.4268L113.557 61.2679L118.067 59.1089C118.137 59.2539 118.171 59.3614 118.185 59.413C118.2 59.465 118.2 59.4778 118.194 59.4411C118.189 59.4051 118.18 59.3338 118.175 59.2214C118.169 59.1096 118.166 58.9667 118.171 58.7896L113.172 58.6755ZM113.557 61.2679L109.047 63.4268L109.489 64.3496L113.999 62.1906L118.509 60.0317L118.067 59.1089L113.557 61.2679ZM113.999 62.1906L109.489 64.3496L109.931 65.2724L114.441 63.1134L118.951 60.9545L118.509 60.0317L113.999 62.1906ZM114.441 63.1134L109.931 65.2724C110.053 65.5277 109.94 65.3452 109.844 64.9435C109.826 64.8711 109.577 63.9536 109.856 62.7844C110.022 62.0897 110.445 61.0242 111.487 60.1518C112.567 59.2478 113.774 59 114.653 59V64V69C115.568 69 116.803 68.743 117.905 67.8205C118.97 66.9297 119.408 65.8364 119.583 65.1047C119.879 63.8617 119.621 62.8334 119.568 62.6132C119.401 61.9159 119.111 61.2902 118.951 60.9545L114.441 63.1134ZM114.653 64V59H114.433V64V69H114.653V64ZM114.433 64V59H114.212V64V69H114.433V64ZM114.212 64V59C112.48 59 111.307 59.8541 110.771 60.3476C110.228 60.8471 109.912 61.3548 109.764 61.6122C109.459 62.1432 109.29 62.6454 109.21 62.8947C109.029 63.4641 108.887 64.1159 108.772 64.719L113.683 65.6582L118.594 66.5974C118.69 66.095 118.742 65.9178 118.737 65.9344C118.732 65.9519 118.711 66.0144 118.674 66.1073C118.64 66.1904 118.564 66.3698 118.434 66.5951C118.326 66.7833 118.049 67.2393 117.544 67.7042C117.046 68.1632 115.909 69 114.212 69V64ZM113.683 65.6582L108.772 64.719L108.442 66.4449L113.353 67.3841L118.264 68.3232L118.594 66.5974L113.683 65.6582Z" fill="#D7C9C9"/>
<path d="M20.5615 61.636L21.6415 62.677L20.5615 61.636ZM21.1613 61.0138L20.0813 59.9728L21.1613 61.0138ZM21.761 60.3916L22.8409 61.4326L21.761 60.3916ZM22.5554 59.5569L23.6486 60.584V60.584L22.5554 59.5569ZM23.1473 58.9269L22.0541 57.8998L23.1473 58.9269ZM23.7392 58.2969L24.8324 59.324V59.324L23.7392 58.2969ZM24.5373 57.4659L25.6078 58.5167L24.5373 57.4659ZM25.1426 56.8493L24.0722 55.7985L25.1426 56.8493ZM25.7479 56.2327L26.8183 57.2835L25.7479 56.2327ZM26.5569 55.4125L27.6223 56.4685L26.5569 55.4125ZM27.1652 54.7989L26.0998 53.7429L27.1652 54.7989ZM27.7734 54.1853L28.8387 55.2412L27.7734 54.1853ZM28.6192 53.4018L27.6475 52.2591V52.2591L28.6192 53.4018ZM29.2795 52.8403L30.2512 53.9831V53.9831L29.2795 52.8403ZM29.9399 52.2788L28.9683 51.1361V51.1361L29.9399 52.2788ZM30.7348 51.4445L31.9228 52.3603V52.3603L30.7348 51.4445ZM31.2666 50.7545L30.0786 49.8388L30.0786 49.8388L31.2666 50.7545ZM31.7985 50.0645L32.9865 50.9802V50.9802L31.7985 50.0645ZM32.5911 49.2279L31.6132 48.0905V48.0905L32.5911 49.2279ZM33.2481 48.6631L34.226 49.8005V49.8005L33.2481 48.6631ZM33.9052 48.0982L32.9273 46.9608V46.9608L33.9052 48.0982ZM34.712 47.2759L35.8678 48.2319V48.2319L34.712 47.2759ZM35.2651 46.6071L34.1093 45.651V45.651L35.2651 46.6071ZM35.8183 45.9384L36.9741 46.8945V46.8945L35.8183 45.9384ZM36.6547 45.1457L35.761 43.941V43.941L36.6547 45.1457ZM37.3562 44.6253L38.2499 45.83V45.83L37.3562 44.6253ZM38.0577 44.1049L37.164 42.9002L37.164 42.9002L38.0577 44.1049ZM38.8651 43.2832L40.0849 44.1561L40.0849 44.1561L38.8651 43.2832ZM39.3748 42.571L38.155 41.698L38.155 41.698L39.3748 42.571ZM39.8845 41.8588L41.1043 42.7317L41.1043 42.7317L39.8845 41.8588ZM40.7025 41.0476L39.8393 39.8208L39.8393 39.8208L40.7025 41.0476ZM41.4197 40.5429L42.2829 41.7697L42.2829 41.7697L41.4197 40.5429ZM42.1369 40.0383L41.2738 38.8115L41.2738 38.8115L42.1369 40.0383ZM42.9609 39.2331L44.1679 40.1237L44.1679 40.1237L42.9609 39.2331ZM43.4797 38.53L42.2727 37.6394L42.2727 37.6394L43.4797 38.53ZM43.9985 37.8269L45.2055 38.7175L45.2055 38.7175L43.9985 37.8269ZM44.7513 36.9505L43.6895 35.8909L44.7513 36.9505ZM45.3616 36.3389L46.4233 37.3985L45.3616 36.3389ZM45.9719 35.7274L44.9102 34.6678L45.9719 35.7274ZM46.842 34.9683L45.9356 33.7732L45.9356 33.7732L46.842 34.9683ZM47.5369 34.4413L48.4434 35.6364L48.4434 35.6364L47.5369 34.4413ZM48.2317 33.9143L47.3253 32.7192L47.3253 32.7192L48.2317 33.9143ZM49.07 33.1234L50.2111 34.097L50.2111 34.097L49.07 33.1234ZM49.6326 32.4641L48.4915 31.4904V31.4904L49.6326 32.4641ZM50.1952 31.8048L51.3362 32.7784V32.7784L50.1952 31.8048ZM51.0094 30.9898L50.0346 29.8496L50.0346 29.8496L51.0094 30.9898ZM51.6681 30.4266L52.6428 31.5668V31.5668L51.6681 30.4266ZM52.3268 29.8635L51.3521 28.7233V28.7233L52.3268 29.8635ZM53.178 29.0855L52.1298 28.0126V28.0126L53.178 29.0855ZM53.796 28.4817L54.8443 29.5546V29.5546L53.796 28.4817ZM54.4141 27.8778L53.3658 26.8049V26.8049L54.4141 27.8778ZM55.2097 27.0443L56.3302 28.0415V28.0415L55.2097 27.0443ZM55.7851 26.3978L54.6646 25.4005V25.4005L55.7851 26.3978ZM56.3605 25.7513L57.481 26.7485V26.7485L56.3605 25.7513ZM57.1142 24.8758L58.2669 25.8357L58.2669 25.8357L57.1142 24.8758ZM57.6694 24.2091L56.5167 23.2493L56.5167 23.2493L57.6694 24.2091ZM58.2246 23.5424L59.3773 24.5023L59.3773 24.5023L58.2246 23.5424ZM58.9906 22.6793L60.0805 23.7098V23.7098L58.9906 22.6793ZM59.5844 22.0512L58.4944 21.0207V21.0207L59.5844 22.0512ZM60.1782 21.4231L61.2682 22.4537V22.4537L60.1782 21.4231ZM61.055 20.6707L60.1998 19.4384L60.1998 19.4384L61.055 20.6707ZM61.7763 20.1702L62.6315 21.4025L62.6315 21.4025L61.7763 20.1702ZM62.4976 19.6696L61.6425 18.4373L61.6425 18.4373L62.4976 19.6696ZM63.3274 19.2673L63.0378 17.7955L63.0378 17.7955L63.3274 19.2673ZM63.8507 19.1643L64.1402 20.6361L64.1403 20.6361L63.8507 19.1643ZM64.3739 19.0614L64.0844 17.5896L64.0843 17.5896L64.3739 19.0614ZM65.1687 19.3615L66.1246 18.2055L66.1246 18.2055L65.1687 19.3615ZM65.8375 19.9145L64.8815 21.0705L64.8815 21.0705L65.8375 19.9145ZM66.5063 20.4676L67.4622 19.3117L67.4622 19.3116L66.5063 20.4676ZM67.3515 21.2516L68.4327 20.2118L68.4326 20.2118L67.3515 21.2516ZM67.9505 21.8744L66.8693 22.9142L66.8693 22.9142L67.9505 21.8744ZM68.5495 22.4973L69.6307 21.4576L69.6307 21.4576L68.5495 22.4973ZM69.3488 23.3272L70.4284 22.2859L70.4284 22.2859L69.3488 23.3272ZM69.9487 23.9492L68.8691 24.9905L68.8691 24.9905L69.9487 23.9492ZM70.5486 24.5711L71.6282 23.5298L71.6282 23.5298L70.5486 24.5711ZM71.3669 25.382L72.3984 24.293L72.3984 24.293L71.3669 25.382ZM71.9944 25.9764L70.9628 27.0654L70.9628 27.0654L71.9944 25.9764ZM72.6219 26.5708L73.6534 25.4818L73.6534 25.4818L72.6219 26.5708ZM73.47 27.3518L74.4705 26.2343L74.4705 26.2343L73.47 27.3518ZM74.1147 27.929L73.1142 29.0466L73.1142 29.0466L74.1147 27.929ZM74.7594 28.5062L75.7599 27.3886L75.7599 27.3886L74.7594 28.5062ZM75.5701 29.3246L76.6971 28.3347L76.6971 28.3347L75.5701 29.3246ZM76.1415 29.9751L75.0146 30.9651L75.0146 30.9651L76.1415 29.9751ZM76.7129 30.6256L77.8399 29.6357L77.8399 29.6357L76.7129 30.6256ZM77.4595 31.5083L78.6226 30.561L78.6226 30.561L77.4595 31.5083ZM78.0079 32.1817L76.8448 33.1289L76.8448 33.1289L78.0079 32.1817ZM78.5563 32.8551L79.7194 31.9079L79.7194 31.9079L78.5563 32.8551ZM79.3479 33.6927L80.3589 32.5846L80.3589 32.5846L79.3479 33.6927ZM79.9869 34.2757L78.9759 35.3838L78.9759 35.3838L79.9869 34.2757ZM80.6258 34.8586L81.6368 33.7505L81.6368 33.7505L80.6258 34.8586ZM81.4433 35.6703L82.5441 34.6514L82.5441 34.6514L81.4433 35.6703ZM82.0306 36.3048L80.9298 37.3237L80.9298 37.3237L82.0306 36.3048ZM82.618 36.9394L83.7188 35.9205V35.9204L82.618 36.9394ZM83.4076 37.7789L84.492 36.7425L84.492 36.7425L83.4076 37.7789ZM84.0047 38.4037L82.9203 39.4401L82.9203 39.4401L84.0047 38.4037ZM84.6018 39.0285L85.6862 37.9921L85.6862 37.9921L84.6018 39.0285ZM85.4735 39.786L86.35 38.5688H86.35L85.4735 39.786ZM86.1838 40.2975L85.3072 41.5148L85.3072 41.5148L86.1838 40.2975ZM86.8941 40.8091L87.7707 39.5918L87.7707 39.5918L86.8941 40.8091ZM87.758 41.5744L88.862 40.559L88.862 40.559L87.758 41.5744ZM88.3433 42.2109L87.2393 43.2263L87.2393 43.2263L88.3433 42.2109ZM88.9287 42.8474L90.0328 41.832L90.0328 41.832L88.9287 42.8474ZM89.7169 43.6884L90.8017 42.6525L90.8017 42.6525L89.7169 43.6884ZM90.3138 44.3134L89.2289 45.3494L89.229 45.3494L90.3138 44.3134ZM90.9106 44.9384L91.9954 43.9025L91.9954 43.9025L90.9106 44.9384ZM91.7455 45.7328L92.7263 44.5979L92.7263 44.5979L91.7455 45.7328ZM92.4009 46.2992L91.4201 47.4341L91.4201 47.4341L92.4009 46.2992ZM93.0564 46.8657L94.0372 45.7307L94.0372 45.7307L93.0564 46.8657ZM93.902 47.6492L94.9591 46.585L94.9591 46.585L93.902 47.6492ZM94.515 48.2581L93.4579 49.3223L93.4579 49.3223L94.515 48.2581ZM95.128 48.867L96.1851 47.8028L96.1851 47.8028L95.128 48.867ZM95.9507 49.6734L96.9935 48.5951L96.9935 48.5951L95.9507 49.6734ZM96.5719 50.2741L95.5292 51.3524L95.5292 51.3524L96.5719 50.2741ZM97.1931 50.8748L98.2358 49.7965L98.2358 49.7965L97.1931 50.8748ZM98.0103 51.6868L99.0819 50.6372L99.0819 50.6372L98.0103 51.6868ZM98.6149 52.304L97.5433 53.3536L97.5433 53.3536L98.6149 52.304ZM99.2195 52.9213L100.291 51.8717L100.291 51.8717L99.2195 52.9213ZM99.9847 53.7852L101.156 52.8478L101.156 52.8478L99.9847 53.7852ZM100.528 54.4638L99.3571 55.4013L99.3571 55.4013L100.528 54.4638ZM101.071 55.1424L102.242 54.205L102.242 54.205L101.071 55.1424ZM101.868 55.9745L102.855 54.8446L102.855 54.8446L101.868 55.9745ZM102.521 56.5441L101.534 57.674L101.534 57.674L102.521 56.5441ZM103.173 57.1136L104.16 55.9837L104.16 55.9837L103.173 57.1136ZM103.959 57.9569L105.155 57.0515L105.155 57.0515L103.959 57.9569ZM104.485 58.6523L103.29 59.5578L103.29 59.5578L104.485 58.6523ZM105.012 59.3477L106.208 58.4422L106.208 58.4422L105.012 59.3477ZM105.841 60.1476L106.704 58.9207L106.704 58.9207L105.841 60.1476ZM106.558 60.6522L105.696 61.8791L105.696 61.8791L106.558 60.6522ZM107.276 61.1567L108.139 59.9298L108.139 59.9298L107.276 61.1567ZM108.164 61.8977L109.218 60.8299L109.218 60.8299L108.164 61.8977ZM108.779 62.5045L107.726 63.5722L107.726 63.5723L108.779 62.5045ZM109.394 63.1114L110.448 62.0436L110.448 62.0436L109.394 63.1114ZM109.441 63.9194L110.556 64.923V64.9229L109.441 63.9194ZM108.896 64.5247L107.781 63.5212L107.781 63.5212L108.896 64.5247ZM108.351 65.1299L109.466 66.1334L109.466 66.1334L108.351 65.1299ZM107.652 66.0119L108.88 66.8741L108.88 66.8741L107.652 66.0119ZM107.148 66.7296L105.92 65.8674L105.92 65.8674L107.148 66.7296ZM106.644 67.4474L107.871 68.3096L107.871 68.3095L106.644 67.4474ZM105.834 68.2664L106.709 69.4846L106.709 69.4846L105.834 68.2664ZM105.123 68.7772L104.247 67.559L104.247 67.559L105.123 68.7772ZM104.412 69.2881L105.287 70.5063L105.287 70.5063L104.412 69.2881ZM103.6 70.1058L104.825 70.9719V70.9718L103.6 70.1058ZM103.094 70.8216L101.869 69.9555L101.869 69.9555L103.094 70.8216ZM102.588 71.5373L103.813 72.4034L103.813 72.4033L102.588 71.5373ZM101.766 72.345L102.612 73.5838L102.612 73.5838L101.766 72.345ZM101.04 72.8408L100.194 71.602L100.194 71.602L101.04 72.8408ZM100.314 73.3366L101.16 74.5753L101.16 74.5753L100.314 73.3366ZM99.4599 74.1115L100.612 75.0715L100.612 75.0715L99.4599 74.1115ZM98.9046 74.7781L97.7521 73.818L97.7521 73.818L98.9046 74.7781ZM98.3493 75.4446L99.5018 76.4047L99.5018 76.4047L98.3493 75.4446ZM97.5506 76.2751L98.5545 77.3896L98.5545 77.3896L97.5506 76.2751ZM96.9077 76.8541L95.9038 75.7396L95.9038 75.7396L96.9077 76.8541ZM96.2649 77.4332L97.2688 78.5477L97.2689 78.5477L96.2649 77.4332ZM95.414 78.2114L96.4348 79.3106L96.4348 79.3106L95.414 78.2114ZM94.7805 78.7998L93.7597 77.7007L93.7597 77.7007L94.7805 78.7998ZM94.147 79.3882L95.1677 80.4873L95.1677 80.4873L94.147 79.3882ZM93.3441 80.2144L94.472 81.2033L94.472 81.2033L93.3441 80.2144ZM92.7733 80.8655L91.6454 79.8767L91.6454 79.8767L92.7733 80.8655ZM92.2025 81.5166L93.3304 82.5055L93.3304 82.5054L92.2025 81.5166ZM91.4412 82.3845L92.5686 83.3739L92.5686 83.3739L91.4412 82.3845ZM90.8701 83.0353L89.7427 82.0459L89.7427 82.0459L90.8701 83.0353ZM90.299 83.686L91.4264 84.6755L91.4264 84.6755L90.299 83.686ZM89.5258 84.542L90.6244 85.5634L90.6244 85.5633L89.5258 84.542ZM88.9371 85.1752L87.8385 84.1539L87.8385 84.1539L88.9371 85.1752ZM88.3484 85.8084L89.447 86.8298L89.447 86.8298L88.3484 85.8084ZM87.5318 86.621L88.5475 87.7247L88.5475 87.7247L87.5318 86.621ZM86.8955 87.2065L85.8797 86.1028L85.8797 86.1028L86.8955 87.2065ZM86.2592 87.7921L87.2749 88.8959L87.2749 88.8958L86.2592 87.7921ZM85.4502 88.6123L86.5677 89.6129L86.5677 89.6129L85.4502 88.6123ZM84.8729 89.2569L83.7555 88.2563L83.7554 88.2563L84.8729 89.2569ZM84.2957 89.9016L85.4132 90.9022L85.4132 90.9022L84.2957 89.9016ZM83.4935 90.7286L84.5276 91.8152L84.5276 91.8152L83.4935 90.7286ZM82.8674 91.3244L81.8334 90.2378L81.8334 90.2378L82.8674 91.3244ZM82.2414 91.9202L83.2754 93.0068L83.2754 93.0068L82.2414 91.9202ZM81.3627 92.6706L82.2746 93.8616L82.2746 93.8616L81.3627 92.6706ZM80.6707 93.2005L79.7587 92.0096L79.7587 92.0096L80.6707 93.2005ZM79.9787 93.7304L80.8906 94.9214L80.8906 94.9213L79.9787 93.7304ZM79.1195 94.5004L80.2045 95.5362L80.2045 95.5362L79.1195 94.5004ZM78.5228 95.1255L77.4378 94.0898L77.4378 94.0898L78.5228 95.1255ZM77.926 95.7507L79.011 96.7864L79.011 96.7864L77.926 95.7507ZM77.1668 96.6207L78.3397 97.5557L78.3397 97.5557L77.1668 96.6207ZM76.6248 97.3006L75.4519 96.3655L75.4519 96.3655L76.6248 97.3006ZM76.0828 97.9804L77.2557 98.9155L77.2557 98.9155L76.0828 97.9804ZM75.2563 98.7831L76.1573 99.9824L76.1573 99.9824L75.2563 98.7831ZM74.5586 99.3073L73.6577 98.108L73.6577 98.108L74.5586 99.3073ZM73.8609 99.8314L74.7618 101.031L74.7618 101.031L73.8609 99.8314ZM73.0047 100.604L74.107 101.622L74.107 101.622L73.0047 100.604ZM72.4183 101.24L71.316 100.222L71.316 100.222L72.4183 101.24ZM71.8318 101.875L72.934 102.893L72.934 102.893L71.8318 101.875ZM71.018 102.691L72.0377 103.791L72.0377 103.791L71.018 102.691ZM70.3839 103.278L69.3642 102.178L69.3642 102.178L70.3839 103.278ZM69.7498 103.866L70.7695 104.966L70.7695 104.966L69.7498 103.866ZM68.9785 104.724L70.1798 105.622L70.1798 105.622L68.9785 104.724ZM68.4557 105.423L67.2545 104.525L67.2545 104.525L68.4557 105.423ZM67.9329 106.122L69.1342 107.021L69.1342 107.021L67.9329 106.122ZM67.1687 106.987L68.2073 108.07L68.2073 108.07L67.1687 106.987ZM66.5452 107.586L65.5066 106.503L65.5066 106.503L66.5452 107.586ZM65.9216 108.184L66.9601 109.266L66.9601 109.266L65.9216 108.184ZM65.1189 108.692L65.525 110.136L65.525 110.136L65.1189 108.692ZM64.5385 108.855L64.1324 107.411L64.1324 107.411L64.5385 108.855ZM63.958 109.018L64.3641 110.462L64.3641 110.462L63.958 109.018ZM63.0877 108.796L62.2398 110.033L62.2398 110.033L63.0877 108.796ZM62.3627 108.299L63.2105 107.061L63.2105 107.061L62.3627 108.299ZM61.6376 107.802L60.7897 109.039L60.7897 109.039L61.6376 107.802ZM60.8223 106.988L62.0583 106.138L62.0583 106.138L60.8223 106.988ZM60.3245 106.264L59.0885 107.114L59.0885 107.114L60.3245 106.264ZM59.8266 105.54L61.0626 104.69L61.0626 104.69L59.8266 105.54ZM59.0091 104.728L58.1679 105.97L58.1679 105.97L59.0091 104.728ZM58.2806 104.235L59.1217 102.993L59.1217 102.993L58.2806 104.235ZM57.5521 103.742L56.7109 104.984L56.7109 104.984L57.5521 103.742ZM56.7072 102.957L57.8849 102.028V102.028L56.7072 102.957ZM56.1684 102.274L54.9907 103.203L54.9907 103.203L56.1684 102.274ZM55.6296 101.591L56.8073 100.662L56.8073 100.662L55.6296 101.591ZM54.8333 100.758L53.8529 101.894V101.894L54.8333 100.758ZM54.1776 100.192L55.158 99.0569L55.158 99.0569L54.1776 100.192ZM53.522 99.6259L52.5416 100.761V100.761L53.522 99.6259ZM52.6994 98.8193L53.8153 97.8169V97.8169L52.6994 98.8193ZM52.1212 98.1756L51.0053 99.178V99.178L52.1212 98.1756ZM51.543 97.532L52.6589 96.5296V96.5296L51.543 97.532ZM50.7711 96.6747L51.8847 95.6697V95.6697L50.7711 96.6747ZM50.1915 96.0324L49.0779 97.0373V97.0373L50.1915 96.0324ZM49.6119 95.3901L50.7255 94.3852V94.3852L49.6119 95.3901ZM48.8293 94.5436L49.9183 93.5121V93.5121L48.8293 94.5436ZM48.2349 93.9161L47.1458 94.9476V94.9476L48.2349 93.9161ZM47.6405 93.2885L48.7296 92.2571V92.2571L47.6405 93.2885ZM46.7981 92.5018L45.8432 93.6586V93.6586L46.7981 92.5018ZM46.1287 91.9493L47.0837 90.7925V90.7925L46.1287 91.9493ZM45.4594 91.3968L44.5045 92.5535L44.5045 92.5535L45.4594 91.3968ZM44.6027 90.6243L43.5503 91.6931V91.6931L44.6027 90.6243ZM43.9871 90.0181L45.0395 88.9492V88.9492L43.9871 90.0181ZM43.3714 89.4118L42.319 90.4807V90.4807L43.3714 89.4118ZM42.5745 88.5796L43.688 87.5745V87.5745L42.5745 88.5796ZM41.9948 87.9373L40.8813 88.9423V88.9423L41.9948 87.9373ZM41.4152 87.2951L42.5287 86.2901V86.2901L41.4152 87.2951ZM40.6432 86.4379L41.7589 85.4353V85.4353L40.6432 86.4379ZM40.0649 85.7943L38.9492 86.7969V86.7969L40.0649 85.7943ZM39.4866 85.1508L40.6023 84.1482L40.6023 84.1482L39.4866 85.1508ZM38.6196 84.3886L37.7661 85.622L37.7661 85.622L38.6196 84.3886ZM37.8975 83.8888L38.751 82.6554L38.751 82.6554L37.8975 83.8888ZM37.1753 83.3891L36.3218 84.6226L36.3218 84.6226L37.1753 83.3891ZM36.3634 82.5718L37.6023 81.7262L37.6023 81.7262L36.3634 82.5718ZM35.8677 81.8457L34.6288 82.6913L34.6288 82.6913L35.8677 81.8457ZM35.372 81.1195L36.6109 80.2738L36.6109 80.2738L35.372 81.1195ZM34.5925 80.2698L33.6456 81.4332V81.4332L34.5925 80.2698ZM33.9189 79.7215L34.8658 78.5582V78.5582L33.9189 79.7215ZM33.2453 79.1733L32.2984 80.3366L32.2984 80.3366L33.2453 79.1733ZM32.3959 78.3935L33.4745 77.3511V77.3511L32.3959 78.3935ZM31.7954 77.7721L30.7168 78.8145V78.8145L31.7954 77.7721ZM31.1949 77.1507L32.2736 76.1083V76.1083L31.1949 77.1507ZM30.3896 76.3268L31.4563 75.2722L30.3896 76.3268ZM29.7821 75.7124L28.7155 76.767L29.7821 75.7124ZM29.1747 75.098L30.2414 74.0434L29.1747 75.098ZM28.3176 74.3259L27.3793 75.4962V75.4962L28.3176 74.3259ZM27.6395 73.7822L28.5778 72.6119V72.6119L27.6395 73.7822ZM26.9613 73.2385L26.023 74.4087V74.4087L26.9613 73.2385ZM26.135 72.4356L27.278 71.4643V71.4643L26.135 72.4356ZM25.5737 71.775L24.4306 72.7464V72.7464L25.5737 71.775ZM25.0123 71.1145L26.1554 70.1432L26.1554 70.1432L25.0123 71.1145ZM24.2216 70.276L23.1852 71.3604V71.3604L24.2216 70.276ZM23.5968 69.6789L24.6332 68.5945L23.5968 69.6789ZM22.9721 69.0818L21.9357 70.1662V70.1662L22.9721 69.0818ZM22.138 68.2867L21.1044 69.3738V69.3738L22.138 68.2867ZM21.5117 67.6912L22.5452 66.6041V66.6041L21.5117 67.6912ZM20.8853 67.0956L19.8517 68.1827V68.1827L20.8853 67.0956ZM20.059 66.2928L19.0021 67.3572V67.3572L20.059 66.2928ZM19.4459 65.684L20.5028 64.6196L19.4459 65.684ZM18.8328 65.0752L17.7759 66.1397L18.8328 65.0752ZM19.0809 63.0063L20.0744 64.1301L20.7229 63.5568L19.7294 62.433L18.7359 61.3092L18.0873 61.8826L19.0809 63.0063ZM19.7294 62.433L20.7229 63.5568C21.041 63.2756 21.3472 62.9823 21.6415 62.677L20.5615 61.636L19.4816 60.595C19.2428 60.8427 18.9942 61.0808 18.7359 61.3092L19.7294 62.433ZM20.5615 61.636L21.6415 62.677L22.2412 62.0548L21.1613 61.0138L20.0813 59.9728L19.4816 60.595L20.5615 61.636ZM21.1613 61.0138L22.2412 62.0548L22.8409 61.4326L21.761 60.3916L20.681 59.3506L20.0813 59.9728L21.1613 61.0138ZM21.761 60.3916L22.8409 61.4326C23.1119 61.1515 23.3811 60.8686 23.6486 60.584L22.5554 59.5569L21.4622 58.5298C21.2035 58.8051 20.9431 59.0787 20.681 59.3506L21.761 60.3916ZM22.5554 59.5569L23.6486 60.584L24.2405 59.954L23.1473 58.9269L22.0541 57.8998L21.4622 58.5298L22.5554 59.5569ZM23.1473 58.9269L24.2405 59.954L24.8324 59.324L23.7392 58.2969L22.646 57.2698L22.0541 57.8998L23.1473 58.9269ZM23.7392 58.2969L24.8324 59.324C25.088 59.052 25.3464 58.7829 25.6078 58.5167L24.5373 57.4659L23.4669 56.4151C23.1902 56.6969 22.9166 56.9819 22.646 57.2698L23.7392 58.2969ZM24.5373 57.4659L25.6078 58.5167L26.213 57.9001L25.1426 56.8493L24.0722 55.7985L23.4669 56.4151L24.5373 57.4659ZM25.1426 56.8493L26.213 57.9001L26.8183 57.2835L25.7479 56.2327L24.6775 55.1819L24.0722 55.7985L25.1426 56.8493ZM25.7479 56.2327L26.8183 57.2835C27.0857 57.0112 27.3536 56.7395 27.6223 56.4685L26.5569 55.4125L25.4916 54.3566C25.2196 54.631 24.9482 54.9061 24.6775 55.1819L25.7479 56.2327ZM26.5569 55.4125L27.6223 56.4685L28.2305 55.8549L27.1652 54.7989L26.0998 53.7429L25.4916 54.3566L26.5569 55.4125ZM27.1652 54.7989L28.2305 55.8549L28.8387 55.2412L27.7734 54.1853L26.7081 53.1293L26.0998 53.7429L27.1652 54.7989ZM27.7734 54.1853L28.8387 55.2412C29.079 54.9989 29.3296 54.7667 29.5908 54.5446L28.6192 53.4018L27.6475 52.2591C27.3217 52.5361 27.0085 52.8262 26.7081 53.1293L27.7734 54.1853ZM28.6192 53.4018L29.5908 54.5446L30.2512 53.9831L29.2795 52.8403L28.3079 51.6976L27.6475 52.2591L28.6192 53.4018ZM29.2795 52.8403L30.2512 53.9831L30.9116 53.4216L29.9399 52.2788L28.9683 51.1361L28.3079 51.6976L29.2795 52.8403ZM29.9399 52.2788L30.9116 53.4216C31.2853 53.1038 31.6227 52.7495 31.9228 52.3603L30.7348 51.4445L29.5467 50.5288C29.374 50.7528 29.1815 50.9548 28.9683 51.1361L29.9399 52.2788ZM30.7348 51.4445L31.9228 52.3603L32.4547 51.6702L31.2666 50.7545L30.0786 49.8388L29.5467 50.5288L30.7348 51.4445ZM31.2666 50.7545L32.4547 51.6702L32.9865 50.9802L31.7985 50.0645L30.6105 49.1487L30.0786 49.8388L31.2666 50.7545ZM31.7985 50.0645L32.9865 50.9802C33.1609 50.754 33.3548 50.5495 33.569 50.3654L32.5911 49.2279L31.6132 48.0905C31.2434 48.4084 30.9088 48.7617 30.6105 49.1487L31.7985 50.0645ZM32.5911 49.2279L33.569 50.3654L34.226 49.8005L33.2481 48.6631L32.2703 47.5256L31.6132 48.0905L32.5911 49.2279ZM33.2481 48.6631L34.226 49.8005L34.883 49.2357L33.9052 48.0982L32.9273 46.9608L32.2703 47.5256L33.2481 48.6631ZM33.9052 48.0982L34.883 49.2357C35.2395 48.9292 35.5679 48.5944 35.8678 48.2319L34.712 47.2759L33.5562 46.3198C33.3643 46.5517 33.1549 46.7651 32.9273 46.9608L33.9052 48.0982ZM34.712 47.2759L35.8678 48.2319L36.4209 47.5632L35.2651 46.6071L34.1093 45.651L33.5562 46.3198L34.712 47.2759ZM35.2651 46.6071L36.4209 47.5632L36.9741 46.8945L35.8183 45.9384L34.6625 44.9823L34.1093 45.651L35.2651 46.6071ZM35.8183 45.9384L36.9741 46.8945C37.1424 46.691 37.3331 46.5101 37.5484 46.3504L36.6547 45.1457L35.761 43.941C35.3528 44.2438 34.9859 44.5914 34.6625 44.9823L35.8183 45.9384ZM36.6547 45.1457L37.5484 46.3504L38.2499 45.83L37.3562 44.6253L36.4625 43.4206L35.761 43.941L36.6547 45.1457ZM37.3562 44.6253L38.2499 45.83L38.9514 45.3096L38.0577 44.1049L37.164 42.9002L36.4625 43.4206L37.3562 44.6253ZM38.0577 44.1049L38.9514 45.3096C39.3888 44.9851 39.7679 44.5992 40.0849 44.1561L38.8651 43.2832L37.6453 42.4102C37.5094 42.6002 37.3501 42.7621 37.164 42.9002L38.0577 44.1049ZM38.8651 43.2832L40.0849 44.1561L40.5946 43.4439L39.3748 42.571L38.155 41.698L37.6453 42.4102L38.8651 43.2832ZM39.3748 42.571L40.5946 43.4439L41.1043 42.7317L39.8845 41.8588L38.6647 40.9858L38.155 41.698L39.3748 42.571ZM39.8845 41.8588L41.1043 42.7317C41.2326 42.5526 41.3846 42.4017 41.5656 42.2743L40.7025 41.0476L39.8393 39.8208C39.3828 40.142 38.9895 40.5319 38.6647 40.9858L39.8845 41.8588ZM40.7025 41.0476L41.5656 42.2743L42.2829 41.7697L41.4197 40.5429L40.5565 39.3161L39.8393 39.8208L40.7025 41.0476ZM41.4197 40.5429L42.2829 41.7697L43.0001 41.265L42.1369 40.0383L41.2738 38.8115L40.5565 39.3161L41.4197 40.5429ZM42.1369 40.0383L43.0001 41.265C43.4503 40.9483 43.8412 40.5665 44.1679 40.1237L42.9609 39.2331L41.754 38.3425C41.6195 38.5247 41.4611 38.6797 41.2738 38.8115L42.1369 40.0383ZM42.9609 39.2331L44.1679 40.1237L44.6867 39.4206L43.4797 38.53L42.2727 37.6394L41.754 38.3425L42.9609 39.2331ZM43.4797 38.53L44.6867 39.4206L45.2055 38.7175L43.9985 37.8269L42.7915 36.9363L42.2727 37.6394L43.4797 38.53ZM43.9985 37.8269L45.2055 38.7175C45.3924 38.4642 45.5949 38.2286 45.813 38.0101L44.7513 36.9505L43.6895 35.8909C43.3651 36.2159 43.0658 36.5647 42.7915 36.9363L43.9985 37.8269ZM44.7513 36.9505L45.813 38.0101L46.4233 37.3985L45.3616 36.3389L44.2999 35.2793L43.6895 35.8909L44.7513 36.9505ZM45.3616 36.3389L46.4233 37.3985L47.0336 36.787L45.9719 35.7274L44.9102 34.6678L44.2999 35.2793L45.3616 36.3389ZM45.9719 35.7274L47.0336 36.787C47.2559 36.5643 47.494 36.3565 47.7485 36.1634L46.842 34.9683L45.9356 33.7732C45.5725 34.0486 45.2305 34.3468 44.9102 34.6678L45.9719 35.7274ZM46.842 34.9683L47.7485 36.1635L48.4434 35.6364L47.5369 34.4413L46.6304 33.2462L45.9356 33.7732L46.842 34.9683ZM47.5369 34.4413L48.4434 35.6364L49.1382 35.1094L48.2317 33.9143L47.3253 32.7192L46.6304 33.2462L47.5369 34.4413ZM48.2317 33.9143L49.1382 35.1094C49.5324 34.8104 49.8906 34.4726 50.2111 34.097L49.07 33.1234L47.929 32.1497C47.7494 32.3602 47.5487 32.5497 47.3253 32.7192L48.2317 33.9143ZM49.07 33.1234L50.2111 34.097L50.7737 33.4377L49.6326 32.4641L48.4915 31.4904L47.929 32.1497L49.07 33.1234ZM49.6326 32.4641L50.7737 33.4377L51.3362 32.7784L50.1952 31.8048L49.0541 30.8311L48.4915 31.4904L49.6326 32.4641ZM50.1952 31.8048L51.3362 32.7784C51.5353 32.5451 51.751 32.3291 51.9841 32.1299L51.0094 30.9898L50.0346 29.8496C49.6821 30.151 49.3551 30.4783 49.0541 30.8311L50.1952 31.8048ZM51.0094 30.9898L51.9841 32.1299L52.6428 31.5668L51.6681 30.4266L50.6934 29.2865L50.0346 29.8496L51.0094 30.9898ZM51.6681 30.4266L52.6428 31.5668L53.3015 31.0036L52.3268 29.8635L51.3521 28.7233L50.6934 29.2865L51.6681 30.4266ZM52.3268 29.8635L53.3015 31.0036C53.6195 30.7318 53.9277 30.4501 54.2262 30.1584L53.178 29.0855L52.1298 28.0126C51.8789 28.2576 51.6197 28.4946 51.3521 28.7233L52.3268 29.8635ZM53.178 29.0855L54.2262 30.1584L54.8443 29.5546L53.796 28.4817L52.7478 27.4087L52.1298 28.0126L53.178 29.0855ZM53.796 28.4817L54.8443 29.5546L55.4623 28.9507L54.4141 27.8778L53.3658 26.8049L52.7478 27.4087L53.796 28.4817ZM54.4141 27.8778L55.4623 28.9507C55.762 28.658 56.0513 28.3549 56.3302 28.0415L55.2097 27.0443L54.0892 26.047C53.8567 26.3083 53.6155 26.5609 53.3658 26.8049L54.4141 27.8778ZM55.2097 27.0443L56.3302 28.0415L56.9056 27.395L55.7851 26.3978L54.6646 25.4005L54.0892 26.047L55.2097 27.0443ZM55.7851 26.3978L56.9056 27.395L57.481 26.7485L56.3605 25.7513L55.24 24.754L54.6646 25.4005L55.7851 26.3978ZM56.3605 25.7513L57.481 26.7485C57.7477 26.4489 58.0096 26.1446 58.2669 25.8357L57.1142 24.8758L55.9616 23.916C55.7253 24.1997 55.4848 24.479 55.24 24.754L56.3605 25.7513ZM57.1142 24.8758L58.2669 25.8357L58.8221 25.169L57.6694 24.2091L56.5167 23.2493L55.9616 23.916L57.1142 24.8758ZM57.6694 24.2091L58.8221 25.169L59.3773 24.5023L58.2246 23.5424L57.0719 22.5826L56.5167 23.2493L57.6694 24.2091ZM58.2246 23.5424L59.3773 24.5023C59.6039 24.2301 59.8383 23.966 60.0805 23.7098L58.9906 22.6793L57.9006 21.6487C57.615 21.9509 57.3388 22.2621 57.0719 22.5826L58.2246 23.5424ZM58.9906 22.6793L60.0805 23.7098L60.6744 23.0817L59.5844 22.0512L58.4944 21.0207L57.9006 21.6487L58.9906 22.6793ZM59.5844 22.0512L60.6744 23.0817L61.2682 22.4537L60.1782 21.4231L59.0883 20.3926L58.4944 21.0207L59.5844 22.0512ZM60.1782 21.4231L61.2682 22.4537C61.4599 22.2509 61.6732 22.0675 61.9102 21.9031L61.055 20.6707L60.1998 19.4384C59.7956 19.7189 59.4244 20.0371 59.0883 20.3926L60.1782 21.4231ZM61.055 20.6707L61.9102 21.9031L62.6315 21.4025L61.7763 20.1702L60.9212 18.9378L60.1998 19.4384L61.055 20.6707ZM61.7763 20.1702L62.6315 21.4025L63.3528 20.902L62.4976 19.6696L61.6425 18.4373L60.9212 18.9378L61.7763 20.1702ZM62.4976 19.6696L63.3528 20.902C63.4655 20.8238 63.5472 20.7775 63.6 20.7519C63.6547 20.7254 63.658 20.731 63.617 20.7391L63.3274 19.2673L63.0378 17.7955C62.5124 17.8989 62.037 18.1635 61.6425 18.4373L62.4976 19.6696ZM63.3274 19.2673L63.617 20.7391L64.1402 20.6361L63.8507 19.1643L63.5611 17.6926L63.0378 17.7955L63.3274 19.2673ZM63.8507 19.1643L64.1403 20.6361L64.6635 20.5332L64.3739 19.0614L64.0843 17.5896L63.5611 17.6926L63.8507 19.1643ZM64.3739 19.0614L64.6635 20.5332C64.4563 20.5739 64.2948 20.5347 64.2172 20.5054C64.1503 20.4801 64.1486 20.4644 64.2127 20.5174L65.1687 19.3615L66.1246 18.2055C65.6952 17.8504 64.9736 17.4146 64.0844 17.5896L64.3739 19.0614ZM65.1687 19.3615L64.2127 20.5174L64.8815 21.0705L65.8375 19.9145L66.7934 18.7586L66.1246 18.2055L65.1687 19.3615ZM65.8375 19.9145L64.8815 21.0705L65.5504 21.6236L66.5063 20.4676L67.4622 19.3116L66.7934 18.7586L65.8375 19.9145ZM66.5063 20.4676L65.5504 21.6235C65.8039 21.8332 66.0438 22.0557 66.2703 22.2913L67.3515 21.2516L68.4326 20.2118C68.1267 19.8937 67.8032 19.5936 67.4622 19.3117L66.5063 20.4676ZM67.3515 21.2516L66.2703 22.2913L66.8693 22.9142L67.9505 21.8744L69.0317 20.8347L68.4327 20.2118L67.3515 21.2516ZM67.9505 21.8744L66.8693 22.9142L67.4683 23.5371L68.5495 22.4973L69.6307 21.4576L69.0317 20.8347L67.9505 21.8744ZM68.5495 22.4973L67.4683 23.537C67.7351 23.8144 68.002 24.0916 68.2692 24.3685L69.3488 23.3272L70.4284 22.2859C70.1623 22.01 69.8964 21.7339 69.6307 21.4576L68.5495 22.4973ZM69.3488 23.3272L68.2691 24.3685L68.8691 24.9905L69.9487 23.9492L71.0283 22.9078L70.4284 22.2859L69.3488 23.3272ZM69.9487 23.9492L68.8691 24.9905L69.469 25.6125L70.5486 24.5711L71.6282 23.5298L71.0283 22.9078L69.9487 23.9492ZM70.5486 24.5711L69.469 25.6125C69.7513 25.9052 70.0401 26.1914 70.3353 26.471L71.3669 25.382L72.3984 24.293C72.1359 24.0444 71.8792 23.79 71.6282 23.5298L70.5486 24.5711ZM71.3669 25.382L70.3353 26.471L70.9628 27.0654L71.9944 25.9764L73.0259 24.8874L72.3984 24.293L71.3669 25.382ZM71.9944 25.9764L70.9628 27.0654L71.5903 27.6598L72.6219 26.5708L73.6534 25.4818L73.0259 24.8874L71.9944 25.9764ZM72.6219 26.5708L71.5903 27.6598C71.8794 27.9337 72.1725 28.2035 72.4695 28.4694L73.47 27.3518L74.4705 26.2343C74.1944 25.9871 73.9221 25.7363 73.6534 25.4818L72.6219 26.5708ZM73.47 27.3518L72.4695 28.4694L73.1142 29.0466L74.1147 27.929L75.1152 26.8115L74.4705 26.2343L73.47 27.3518ZM74.1147 27.929L73.1142 29.0466L73.7589 29.6238L74.7594 28.5062L75.7599 27.3886L75.1152 26.8114L74.1147 27.929ZM74.7594 28.5062L73.7589 29.6238C74.0007 29.8403 74.2288 30.0705 74.4432 30.3146L75.5701 29.3246L76.6971 28.3347C76.4036 28.0006 76.0911 27.6852 75.7599 27.3886L74.7594 28.5062ZM75.5701 29.3246L74.4432 30.3146L75.0146 30.9651L76.1415 29.9751L77.2685 28.9852L76.6971 28.3347L75.5701 29.3246ZM76.1415 29.9751L75.0146 30.9651L75.5859 31.6156L76.7129 30.6256L77.8399 29.6357L77.2685 28.9852L76.1415 29.9751ZM76.7129 30.6256L75.5859 31.6155C75.8275 31.8906 76.0644 32.1706 76.2964 32.4555L77.4595 31.5083L78.6226 30.561C78.3671 30.2473 78.1062 29.9389 77.8399 29.6357L76.7129 30.6256ZM77.4595 31.5083L76.2964 32.4555L76.8448 33.1289L78.0079 32.1817L79.171 31.2345L78.6226 30.561L77.4595 31.5083ZM78.0079 32.1817L76.8448 33.1289L77.3932 33.8023L78.5563 32.8551L79.7194 31.9079L79.171 31.2345L78.0079 32.1817ZM78.5563 32.8551L77.3932 33.8023C77.6835 34.1587 77.9981 34.4917 78.3369 34.8008L79.3479 33.6927L80.3589 32.5846C80.1298 32.3756 79.9167 32.1502 79.7194 31.9079L78.5563 32.8551ZM79.3479 33.6927L78.3369 34.8008L78.9759 35.3838L79.9869 34.2757L80.9978 33.1676L80.3589 32.5846L79.3479 33.6927ZM79.9869 34.2757L78.9759 35.3838L79.6148 35.9667L80.6258 34.8586L81.6368 33.7505L80.9978 33.1676L79.9869 34.2757ZM80.6258 34.8586L79.6148 35.9667C79.8676 36.1974 80.1101 36.4382 80.3425 36.6892L81.4433 35.6703L82.5441 34.6514C82.2544 34.3383 81.9519 34.038 81.6368 33.7505L80.6258 34.8586ZM81.4433 35.6703L80.3425 36.6892L80.9298 37.3237L82.0306 36.3048L83.1315 35.2859L82.5441 34.6514L81.4433 35.6703ZM82.0306 36.3048L80.9298 37.3237L81.5172 37.9583L82.618 36.9394L83.7188 35.9204L83.1315 35.2859L82.0306 36.3048ZM82.618 36.9394L81.5172 37.9583C81.7836 38.2462 82.0523 38.5318 82.3232 38.8153L83.4076 37.7789L84.492 36.7425C84.2321 36.4706 83.9744 36.1966 83.7188 35.9205L82.618 36.9394ZM83.4076 37.7789L82.3232 38.8153L82.9203 39.4401L84.0047 38.4037L85.0891 37.3673L84.492 36.7425L83.4076 37.7789ZM84.0047 38.4037L82.9203 39.4401L83.5174 40.0648L84.6018 39.0285L85.6862 37.9921L85.0891 37.3673L84.0047 38.4037ZM84.6018 39.0285L83.5174 40.0648C83.8472 40.4099 84.2075 40.7228 84.5969 41.0032L85.4735 39.786L86.35 38.5688C86.108 38.3945 85.8872 38.2024 85.6862 37.9921L84.6018 39.0285ZM85.4735 39.786L84.5969 41.0032L85.3072 41.5148L86.1838 40.2975L87.0604 39.0803L86.35 38.5688L85.4735 39.786ZM86.1838 40.2975L85.3072 41.5148L86.0176 42.0263L86.8941 40.8091L87.7707 39.5918L87.0604 39.0803L86.1838 40.2975ZM86.8941 40.8091L86.0176 42.0263C86.2518 42.195 86.4634 42.3827 86.6539 42.5898L87.758 41.5744L88.862 40.559C88.5322 40.2004 88.1679 39.8779 87.7707 39.5918L86.8941 40.8091ZM87.758 41.5744L86.6539 42.5898L87.2393 43.2263L88.3433 42.2109L89.4474 41.1955L88.862 40.559L87.758 41.5744ZM88.3433 42.2109L87.2393 43.2263L87.8247 43.8628L88.9287 42.8474L90.0328 41.832L89.4474 41.1955L88.3433 42.2109ZM88.9287 42.8474L87.8247 43.8628C88.0912 44.1526 88.3603 44.4398 88.6321 44.7244L89.7169 43.6884L90.8017 42.6525C90.5429 42.3815 90.2866 42.108 90.0328 41.832L88.9287 42.8474ZM89.7169 43.6884L88.6321 44.7244L89.2289 45.3494L90.3138 44.3134L91.3986 43.2775L90.8017 42.6525L89.7169 43.6884ZM90.3138 44.3134L89.229 45.3494L89.8258 45.9744L90.9106 44.9384L91.9954 43.9025L91.3986 43.2775L90.3138 44.3134ZM90.9106 44.9384L89.8258 45.9744C90.1242 46.2869 90.4372 46.5847 90.7647 46.8677L91.7455 45.7328L92.7263 44.5979C92.4711 44.3773 92.2276 44.1456 91.9954 43.9025L90.9106 44.9384ZM91.7455 45.7328L90.7647 46.8677L91.4201 47.4341L92.4009 46.2992L93.3817 45.1643L92.7263 44.5979L91.7455 45.7328ZM92.4009 46.2992L91.4201 47.4341L92.0756 48.0006L93.0564 46.8657L94.0372 45.7307L93.3817 45.1643L92.4009 46.2992ZM93.0564 46.8657L92.0755 48.0005C92.3407 48.2297 92.5971 48.4673 92.8449 48.7134L93.902 47.6492L94.9591 46.585C94.662 46.2899 94.3546 46.0051 94.0372 45.7307L93.0564 46.8657ZM93.902 47.6492L92.8449 48.7134L93.4579 49.3223L94.515 48.2581L95.5721 47.1939L94.9591 46.585L93.902 47.6492ZM94.515 48.2581L93.4579 49.3223L94.0709 49.9312L95.128 48.867L96.1851 47.8028L95.5721 47.1939L94.515 48.2581ZM95.128 48.867L94.0709 49.9312C94.3481 50.2065 94.6271 50.48 94.908 50.7517L95.9507 49.6734L96.9935 48.5951C96.7222 48.3328 96.4527 48.0687 96.1851 47.8028L95.128 48.867ZM95.9507 49.6734L94.908 50.7517L95.5292 51.3524L96.5719 50.2741L97.6147 49.1958L96.9935 48.5951L95.9507 49.6734ZM96.5719 50.2741L95.5292 51.3524L96.1504 51.9531L97.1931 50.8748L98.2358 49.7965L97.6147 49.1958L96.5719 50.2741ZM97.1931 50.8748L96.1504 51.9531C96.4167 52.2106 96.6795 52.4717 96.9387 52.7364L98.0103 51.6868L99.0819 50.6372C98.8037 50.3531 98.5217 50.0729 98.2358 49.7965L97.1931 50.8748ZM98.0103 51.6868L96.9387 52.7363L97.5433 53.3536L98.6149 52.304L99.6865 51.2544L99.0819 50.6372L98.0103 51.6868ZM98.6149 52.304L97.5433 53.3536L98.1479 53.9709L99.2195 52.9213L100.291 51.8717L99.6865 51.2544L98.6149 52.304ZM99.2195 52.9213L98.1479 53.9709C98.3814 54.2093 98.6034 54.4599 98.8138 54.7227L99.9847 53.7852L101.156 52.8478C100.883 52.5074 100.595 52.182 100.291 51.8717L99.2195 52.9213ZM99.9847 53.7852L98.8138 54.7227L99.3571 55.4013L100.528 54.4638L101.699 53.5264L101.156 52.8478L99.9847 53.7852ZM100.528 54.4638L99.3571 55.4013L99.9004 56.0799L101.071 55.1424L102.242 54.205L101.699 53.5264L100.528 54.4638ZM101.071 55.1424L99.9004 56.0799C100.197 56.4507 100.525 56.7925 100.882 57.1044L101.868 55.9745L102.855 54.8446C102.632 54.6503 102.428 54.4373 102.242 54.205L101.071 55.1424ZM101.868 55.9745L100.882 57.1044L101.534 57.674L102.521 56.5441L103.507 55.4142L102.855 54.8446L101.868 55.9745ZM102.521 56.5441L101.534 57.674L102.186 58.2436L103.173 57.1136L104.16 55.9837L103.507 55.4142L102.521 56.5441ZM103.173 57.1136L102.186 58.2436C102.399 58.4288 102.59 58.6345 102.763 58.8624L103.959 57.9569L105.155 57.0515C104.859 56.6612 104.527 56.3048 104.16 55.9837L103.173 57.1136ZM103.959 57.9569L102.763 58.8624L103.29 59.5578L104.485 58.6523L105.681 57.7469L105.155 57.0515L103.959 57.9569ZM104.485 58.6523L103.29 59.5578L103.816 60.2532L105.012 59.3477L106.208 58.4422L105.681 57.7469L104.485 58.6523ZM105.012 59.3477L103.816 60.2532C104.144 60.6866 104.533 61.0615 104.978 61.3746L105.841 60.1476L106.704 58.9207C106.512 58.7853 106.348 58.6269 106.208 58.4422L105.012 59.3477ZM105.841 60.1476L104.978 61.3745L105.696 61.8791L106.558 60.6522L107.421 59.4253L106.704 58.9207L105.841 60.1476ZM106.558 60.6522L105.696 61.8791L106.413 62.3836L107.276 61.1567L108.139 59.9298L107.421 59.4253L106.558 60.6522ZM107.276 61.1567L106.413 62.3836C106.665 62.5609 106.897 62.7548 107.111 62.9654L108.164 61.8977L109.218 60.8299C108.884 60.5011 108.524 60.2011 108.139 59.9298L107.276 61.1567ZM108.164 61.8977L107.111 62.9654L107.726 63.5722L108.779 62.5045L109.833 61.4368L109.218 60.8299L108.164 61.8977ZM108.779 62.5045L107.726 63.5723L108.341 64.1791L109.394 63.1114L110.448 62.0436L109.833 61.4368L108.779 62.5045ZM109.394 63.1114L108.341 64.1791C108.324 64.1628 108.135 63.9693 108.113 63.6025C108.091 63.2153 108.274 62.9742 108.326 62.9159L109.441 63.9194L110.556 64.9229C110.85 64.5957 111.146 64.0854 111.108 63.4289C111.071 62.7927 110.737 62.3296 110.448 62.0436L109.394 63.1114ZM109.441 63.9194L108.326 62.9159L107.781 63.5212L108.896 64.5247L110.011 65.5282L110.556 64.923L109.441 63.9194ZM108.896 64.5247L107.781 63.5212L107.236 64.1264L108.351 65.1299L109.466 66.1334L110.011 65.5282L108.896 64.5247ZM108.351 65.1299L107.236 64.1264C106.951 64.4435 106.681 64.7851 106.425 65.1497L107.652 66.0119L108.88 66.8741C109.072 66.6007 109.267 66.3544 109.466 66.1334L108.351 65.1299ZM107.652 66.0119L106.425 65.1497L105.92 65.8674L107.148 66.7296L108.375 67.5918L108.88 66.8741L107.652 66.0119ZM107.148 66.7296L105.92 65.8674L105.416 66.5852L106.644 67.4474L107.871 68.3095L108.375 67.5918L107.148 66.7296ZM106.644 67.4474L105.416 66.5852C105.289 66.7668 105.138 66.9194 104.958 67.0482L105.834 68.2664L106.709 69.4846C107.162 69.1593 107.551 68.7659 107.871 68.3096L106.644 67.4474ZM105.834 68.2664L104.958 67.0482L104.247 67.559L105.123 68.7772L105.998 69.9954L106.709 69.4846L105.834 68.2664ZM105.123 68.7772L104.247 67.559L103.536 68.0699L104.412 69.2881L105.287 70.5063L105.998 69.9954L105.123 68.7772ZM104.412 69.2881L103.536 68.0699C103.085 68.3942 102.696 68.7859 102.375 69.2398L103.6 70.1058L104.825 70.9718C104.954 70.7895 105.106 70.636 105.287 70.5063L104.412 69.2881ZM103.6 70.1058L102.375 69.2398L101.869 69.9555L103.094 70.8216L104.319 71.6876L104.825 70.9719L103.6 70.1058ZM103.094 70.8216L101.869 69.9555L101.363 70.6713L102.588 71.5373L103.813 72.4033L104.319 71.6876L103.094 70.8216ZM102.588 71.5373L101.363 70.6713C101.242 70.8431 101.096 70.9863 100.921 71.1062L101.766 72.345L102.612 73.5838C103.082 73.263 103.484 72.8677 103.813 72.4034L102.588 71.5373ZM101.766 72.345L100.921 71.1062L100.194 71.602L101.04 72.8408L101.886 74.0796L102.612 73.5838L101.766 72.345ZM101.04 72.8408L100.194 71.602L99.4683 72.0978L100.314 73.3366L101.16 74.5753L101.886 74.0795L101.04 72.8408ZM100.314 73.3366L99.4683 72.0978C99.0325 72.3953 98.6442 72.7471 98.3074 73.1514L99.4599 74.1115L100.612 75.0715C100.769 74.8834 100.95 74.7185 101.16 74.5753L100.314 73.3366ZM99.4599 74.1115L98.3074 73.1514L97.7521 73.818L98.9046 74.7781L100.057 75.7381L100.612 75.0715L99.4599 74.1115ZM98.9046 74.7781L97.7521 73.818L97.1968 74.4846L98.3493 75.4446L99.5018 76.4047L100.057 75.7381L98.9046 74.7781ZM98.3493 75.4446L97.1968 74.4846C96.9957 74.726 96.7791 74.9512 96.5466 75.1606L97.5506 76.2751L98.5545 77.3896C98.8935 77.0842 99.2094 76.7558 99.5018 76.4047L98.3493 75.4446ZM97.5506 76.2751L96.5467 75.1606L95.9038 75.7396L96.9077 76.8541L97.9117 77.9686L98.5545 77.3896L97.5506 76.2751ZM96.9077 76.8541L95.9038 75.7396L95.261 76.3187L96.2649 77.4332L97.2689 78.5477L97.9117 77.9686L96.9077 76.8541ZM96.2649 77.4332L95.261 76.3187C94.9696 76.5811 94.6804 76.8457 94.3933 77.1123L95.414 78.2114L96.4348 79.3106C96.7108 79.0543 96.9888 78.8 97.2688 78.5477L96.2649 77.4332ZM95.414 78.2114L94.3933 77.1123L93.7597 77.7007L94.7805 78.7998L95.8012 79.8989L96.4348 79.3106L95.414 78.2114ZM94.7805 78.7998L93.7597 77.7007L93.1262 78.289L94.147 79.3882L95.1677 80.4873L95.8012 79.8989L94.7805 78.7998ZM94.147 79.3882L93.1262 78.289C92.807 78.5855 92.5036 78.8977 92.2162 79.2256L93.3441 80.2144L94.472 81.2033C94.6919 80.9524 94.9238 80.7138 95.1677 80.4873L94.147 79.3882ZM93.3441 80.2144L92.2162 79.2256L91.6454 79.8767L92.7733 80.8655L93.9012 81.8544L94.472 81.2033L93.3441 80.2144ZM92.7733 80.8655L91.6454 79.8767L91.0746 80.5278L92.2025 81.5166L93.3304 82.5054L93.9012 81.8544L92.7733 80.8655ZM92.2025 81.5166L91.0746 80.5278C90.821 80.817 90.5675 81.1061 90.3138 81.3951L91.4412 82.3845L92.5686 83.3739C92.8226 83.0845 93.0765 82.795 93.3304 82.5055L92.2025 81.5166ZM91.4412 82.3845L90.3138 81.3951L89.7427 82.0459L90.8701 83.0353L91.9975 84.0247L92.5686 83.3739L91.4412 82.3845ZM90.8701 83.0353L89.7427 82.0459L89.1716 82.6966L90.299 83.686L91.4264 84.6755L91.9975 84.0247L90.8701 83.0353ZM90.299 83.686L89.1716 82.6966C88.9272 82.9751 88.6791 83.2498 88.4272 83.5207L89.5258 84.542L90.6244 85.5633C90.8958 85.2714 91.1631 84.9754 91.4264 84.6755L90.299 83.686ZM89.5258 84.542L88.4272 83.5207L87.8385 84.1539L88.9371 85.1752L90.0357 86.1966L90.6244 85.5634L89.5258 84.542ZM88.9371 85.1752L87.8385 84.1539L87.2499 84.7871L88.3484 85.8084L89.447 86.8298L90.0357 86.1966L88.9371 85.1752ZM88.3484 85.8084L87.2499 84.7871C87.0148 85.04 86.7702 85.2833 86.516 85.5172L87.5318 86.621L88.5475 87.7247C88.859 87.4381 89.1589 87.1397 89.447 86.8298L88.3484 85.8084ZM87.5318 86.621L86.516 85.5172L85.8797 86.1028L86.8955 87.2065L87.9112 88.3103L88.5475 87.7247L87.5318 86.621ZM86.8955 87.2065L85.8797 86.1028L85.2434 86.6884L86.2592 87.7921L87.2749 88.8958L87.9112 88.3103L86.8955 87.2065ZM86.2592 87.7921L85.2434 86.6884C84.9251 86.9814 84.6214 87.2892 84.3327 87.6117L85.4502 88.6123L86.5677 89.6129C86.792 89.3623 87.0277 89.1234 87.2749 88.8959L86.2592 87.7921ZM85.4502 88.6123L84.3327 87.6117L83.7555 88.2563L84.8729 89.2569L85.9904 90.2575L86.5677 89.6129L85.4502 88.6123ZM84.8729 89.2569L83.7554 88.2563L83.1782 88.901L84.2957 89.9016L85.4132 90.9022L85.9904 90.2575L84.8729 89.2569ZM84.2957 89.9016L83.1782 88.901C82.9483 89.1578 82.7087 89.4047 82.4595 89.642L83.4935 90.7286L84.5276 91.8152C84.8348 91.5228 85.1301 91.2184 85.4132 90.9022L84.2957 89.9016ZM83.4935 90.7286L82.4595 89.642L81.8334 90.2378L82.8674 91.3244L83.9015 92.411L84.5276 91.8152L83.4935 90.7286ZM82.8674 91.3244L81.8334 90.2378L81.2073 90.8336L82.2414 91.9202L83.2754 93.0068L83.9015 92.411L82.8674 91.3244ZM82.2414 91.9202L81.2073 90.8336C80.9682 91.0611 80.7161 91.2765 80.4507 91.4797L81.3627 92.6706L82.2746 93.8616C82.6243 93.5938 82.958 93.3088 83.2754 93.0068L82.2414 91.9202ZM81.3627 92.6706L80.4507 91.4797L79.7587 92.0096L80.6707 93.2005L81.5826 94.3915L82.2746 93.8616L81.3627 92.6706ZM80.6707 93.2005L79.7587 92.0096L79.0667 92.5395L79.9787 93.7304L80.8906 94.9213L81.5826 94.3915L80.6707 93.2005ZM79.9787 93.7304L79.0667 92.5395C78.6981 92.8217 78.3538 93.1302 78.0345 93.4647L79.1195 94.5004L80.2045 95.5362C80.4157 95.3149 80.6442 95.1101 80.8906 94.9214L79.9787 93.7304ZM79.1195 94.5004L78.0345 93.4647L77.4378 94.0898L78.5228 95.1255L79.6078 96.1613L80.2045 95.5362L79.1195 94.5004ZM78.5228 95.1255L77.4378 94.0898L76.841 94.7149L77.926 95.7507L79.011 96.7864L79.6078 96.1613L78.5228 95.1255ZM77.926 95.7507L76.841 94.7149C76.5448 95.0252 76.2625 95.3488 75.994 95.6856L77.1668 96.6207L78.3397 97.5557C78.553 97.2882 78.7768 97.0318 79.011 96.7864L77.926 95.7507ZM77.1668 96.6207L75.994 95.6856L75.4519 96.3655L76.6248 97.3006L77.7977 98.2356L78.3397 97.5557L77.1668 96.6207ZM76.6248 97.3006L75.4519 96.3655L74.9099 97.0454L76.0828 97.9804L77.2557 98.9155L77.7977 98.2356L76.6248 97.3006ZM76.0828 97.9804L74.9099 97.0454C74.7484 97.2479 74.5644 97.4268 74.3554 97.5838L75.2563 98.7831L76.1573 99.9824C76.5685 99.6735 76.9354 99.3172 77.2557 98.9155L76.0828 97.9804ZM75.2563 98.7831L74.3554 97.5838L73.6577 98.108L74.5586 99.3073L75.4595 100.507L76.1573 99.9824L75.2563 98.7831ZM74.5586 99.3073L73.6577 98.108L72.9599 98.6321L73.8609 99.8314L74.7618 101.031L75.4595 100.507L74.5586 99.3073ZM73.8609 99.8314L72.9599 98.6321C72.5781 98.919 72.2252 99.2374 71.9025 99.5871L73.0047 100.604L74.107 101.622C74.3056 101.407 74.5235 101.21 74.7618 101.031L73.8609 99.8314ZM73.0047 100.604L71.9025 99.5871L71.316 100.222L72.4183 101.24L73.5205 102.257L74.107 101.622L73.0047 100.604ZM72.4183 101.24L71.316 100.222L70.7295 100.858L71.8318 101.875L72.934 102.893L73.5205 102.257L72.4183 101.24ZM71.8318 101.875L70.7295 100.858C70.4953 101.112 70.2516 101.356 69.9984 101.591L71.018 102.691L72.0377 103.791C72.3481 103.503 72.6469 103.204 72.934 102.893L71.8318 101.875ZM71.018 102.691L69.9984 101.591L69.3642 102.178L70.3839 103.278L71.4036 104.379L72.0377 103.791L71.018 102.691ZM70.3839 103.278L69.3642 102.178L68.7301 102.766L69.7498 103.866L70.7695 104.966L71.4036 104.379L70.3839 103.278ZM69.7498 103.866L68.7301 102.766C68.3811 103.09 68.0634 103.443 67.7772 103.826L68.9785 104.724L70.1798 105.622C70.3583 105.384 70.5548 105.165 70.7695 104.966L69.7498 103.866ZM68.9785 104.724L67.7772 103.826L67.2545 104.525L68.4557 105.423L69.657 106.321L70.1798 105.622L68.9785 104.724ZM68.4557 105.423L67.2545 104.525L66.7317 105.224L67.9329 106.122L69.1342 107.021L69.657 106.321L68.4557 105.423ZM67.9329 106.122L66.7317 105.224C66.548 105.47 66.3475 105.696 66.1302 105.905L67.1687 106.987L68.2073 108.07C68.5442 107.746 68.8532 107.396 69.1342 107.021L67.9329 106.122ZM67.1687 106.987L66.1302 105.905L65.5066 106.503L66.5452 107.586L67.5837 108.668L68.2073 108.07L67.1687 106.987ZM66.5452 107.586L65.5066 106.503L64.8831 107.102L65.9216 108.184L66.9601 109.266L67.5837 108.668L66.5452 107.586ZM65.9216 108.184L64.8831 107.102C64.8022 107.179 64.7444 107.222 64.7112 107.243C64.6786 107.263 64.6794 107.257 64.7128 107.248L65.1189 108.692L65.525 110.136C66.1009 109.974 66.5772 109.634 66.9601 109.266L65.9216 108.184ZM65.1189 108.692L64.7128 107.248L64.1324 107.411L64.5385 108.855L64.9446 110.299L65.525 110.136L65.1189 108.692ZM64.5385 108.855L64.1324 107.411L63.5519 107.574L63.958 109.018L64.3641 110.462L64.9446 110.299L64.5385 108.855ZM63.958 109.018L63.5519 107.574C63.7056 107.531 63.8386 107.543 63.9183 107.564C63.9865 107.581 63.9935 107.598 63.9356 107.558L63.0877 108.796L62.2398 110.033C62.7561 110.387 63.5109 110.702 64.3641 110.462L63.958 109.018ZM63.0877 108.796L63.9356 107.558L63.2105 107.061L62.3627 108.299L61.5148 109.536L62.2398 110.033L63.0877 108.796ZM62.3627 108.299L63.2105 107.061L62.4855 106.565L61.6376 107.802L60.7897 109.039L61.5148 109.536L62.3627 108.299ZM61.6376 107.802L62.4855 106.565C62.3153 106.448 62.1751 106.308 62.0583 106.138L60.8223 106.988L59.5863 107.838C59.9121 108.312 60.3154 108.714 60.7897 109.039L61.6376 107.802ZM60.8223 106.988L62.0583 106.138L61.5605 105.414L60.3245 106.264L59.0885 107.114L59.5863 107.838L60.8223 106.988ZM60.3245 106.264L61.5605 105.414L61.0626 104.69L59.8266 105.54L58.5906 106.39L59.0885 107.114L60.3245 106.264ZM59.8266 105.54L61.0626 104.69C60.7352 104.214 60.3287 103.811 59.8502 103.486L59.0091 104.728L58.1679 105.97C58.337 106.085 58.4755 106.223 58.5906 106.39L59.8266 105.54ZM59.0091 104.728L59.8502 103.486L59.1217 102.993L58.2806 104.235L57.4394 105.477L58.1679 105.97L59.0091 104.728ZM58.2806 104.235L59.1217 102.993L58.3932 102.5L57.5521 103.742L56.7109 104.984L57.4394 105.477L58.2806 104.235ZM57.5521 103.742L58.3932 102.5C58.1956 102.366 58.0279 102.21 57.8849 102.028L56.7072 102.957L55.5295 103.886C55.8655 104.312 56.261 104.679 56.7109 104.984L57.5521 103.742ZM56.7072 102.957L57.8849 102.028L57.3461 101.345L56.1684 102.274L54.9907 103.203L55.5295 103.886L56.7072 102.957ZM56.1684 102.274L57.3461 101.345L56.8073 100.662L55.6296 101.591L54.4519 102.52L54.9907 103.203L56.1684 102.274ZM55.6296 101.591L56.8073 100.662C56.5091 100.284 56.1776 99.9373 55.8137 99.6231L54.8333 100.758L53.8529 101.894C54.0718 102.083 54.2712 102.291 54.4519 102.52L55.6296 101.591ZM54.8333 100.758L55.8137 99.6231L55.158 99.0569L54.1776 100.192L53.1973 101.327L53.8529 101.894L54.8333 100.758ZM54.1776 100.192L55.158 99.0569L54.5024 98.4906L53.522 99.6259L52.5416 100.761L53.1973 101.327L54.1776 100.192ZM53.522 99.6259L54.5024 98.4906C54.2588 98.2803 54.0299 98.0559 53.8153 97.8169L52.6994 98.8193L51.5835 99.8217C51.8828 100.155 52.2023 100.468 52.5416 100.761L53.522 99.6259ZM52.6994 98.8193L53.8153 97.8169L53.2371 97.1733L52.1212 98.1756L51.0053 99.178L51.5835 99.8217L52.6994 98.8193ZM52.1212 98.1756L53.2371 97.1733L52.6589 96.5296L51.543 97.532L50.4271 98.5343L51.0053 99.178L52.1212 98.1756ZM51.543 97.532L52.6589 96.5296C52.4012 96.2426 52.1431 95.956 51.8847 95.6697L50.7711 96.6747L49.6575 97.6796C49.9144 97.9642 50.1709 98.2491 50.4271 98.5343L51.543 97.532ZM50.7711 96.6747L51.8847 95.6697L51.3051 95.0274L50.1915 96.0324L49.0779 97.0373L49.6575 97.6796L50.7711 96.6747ZM50.1915 96.0324L51.3051 95.0274L50.7255 94.3852L49.6119 95.3901L48.4983 96.3951L49.0779 97.0373L50.1915 96.0324ZM49.6119 95.3901L50.7255 94.3852C50.4598 94.0908 50.1908 93.7998 49.9183 93.5121L48.8293 94.5436L47.7402 95.5751C47.9961 95.8452 48.2488 96.1186 48.4983 96.3951L49.6119 95.3901ZM48.8293 94.5436L49.9183 93.5121L49.324 92.8846L48.2349 93.9161L47.1458 94.9476L47.7402 95.5751L48.8293 94.5436ZM48.2349 93.9161L49.324 92.8846L48.7296 92.2571L47.6405 93.2885L46.5515 94.32L47.1458 94.9476L48.2349 93.9161ZM47.6405 93.2885L48.7296 92.2571C48.4231 91.9335 48.0975 91.6295 47.753 91.3451L46.7981 92.5018L45.8432 93.6586C46.0936 93.8654 46.3296 94.0858 46.5515 94.32L47.6405 93.2885ZM46.7981 92.5018L47.753 91.3451L47.0837 90.7925L46.1287 91.9493L45.1738 93.1061L45.8432 93.6586L46.7981 92.5018ZM46.1287 91.9493L47.0837 90.7925L46.4143 90.24L45.4594 91.3968L44.5045 92.5535L45.1738 93.1061L46.1287 91.9493ZM45.4594 91.3968L46.4143 90.24C46.1504 90.0222 45.8974 89.794 45.6551 89.5554L44.6027 90.6243L43.5503 91.6931C43.8553 91.9934 44.1734 92.2802 44.5045 92.5535L45.4594 91.3968ZM44.6027 90.6243L45.6551 89.5554L45.0395 88.9492L43.9871 90.0181L42.9346 91.0869L43.5503 91.6931L44.6027 90.6243ZM43.9871 90.0181L45.0395 88.9492L44.4238 88.343L43.3714 89.4118L42.319 90.4807L42.9346 91.0869L43.9871 90.0181ZM43.3714 89.4118L44.4238 88.343C44.1712 88.0943 43.9259 87.8381 43.688 87.5745L42.5745 88.5796L41.461 89.5846C41.7383 89.8919 42.0243 90.1906 42.319 90.4807L43.3714 89.4118ZM42.5745 88.5796L43.688 87.5745L43.1084 86.9323L41.9948 87.9373L40.8813 88.9423L41.461 89.5846L42.5745 88.5796ZM41.9948 87.9373L43.1084 86.9323L42.5287 86.2901L41.4152 87.2951L40.3017 88.3001L40.8813 88.9423L41.9948 87.9373ZM41.4152 87.2951L42.5287 86.2901C42.2718 86.0055 42.0152 85.7205 41.7589 85.4353L40.6432 86.4379L39.5275 87.4405C39.7853 87.7273 40.0433 88.0139 40.3017 88.3001L41.4152 87.2951ZM40.6432 86.4379L41.7589 85.4353L41.1806 84.7917L40.0649 85.7943L38.9492 86.7969L39.5275 87.4405L40.6432 86.4379ZM40.0649 85.7943L41.1806 84.7917L40.6023 84.1482L39.4866 85.1508L38.3709 86.1534L38.9492 86.7969L40.0649 85.7943ZM39.4866 85.1508L40.6023 84.1482C40.266 83.7739 39.8888 83.4427 39.4732 83.1551L38.6196 84.3886L37.7661 85.622C37.9924 85.7787 38.1931 85.9555 38.3709 86.1534L39.4866 85.1508ZM38.6196 84.3886L39.4732 83.1551L38.751 82.6554L37.8975 83.8888L37.0439 85.1223L37.7661 85.622L38.6196 84.3886ZM37.8975 83.8888L38.751 82.6554L38.0289 82.1556L37.1753 83.3891L36.3218 84.6226L37.0439 85.1223L37.8975 83.8888ZM37.1753 83.3891L38.0289 82.1556C37.8592 82.0382 37.7191 81.8973 37.6023 81.7262L36.3634 82.5718L35.1245 83.4175C35.4483 83.8919 35.8495 84.2958 36.3218 84.6226L37.1753 83.3891ZM36.3634 82.5718L37.6023 81.7262L37.1066 81L35.8677 81.8457L34.6288 82.6913L35.1245 83.4175L36.3634 82.5718ZM35.8677 81.8457L37.1066 81L36.6109 80.2738L35.372 81.1195L34.1331 81.9651L34.6288 82.6913L35.8677 81.8457ZM35.372 81.1195L36.6109 80.2738C36.3101 79.8331 35.9523 79.4426 35.5394 79.1065L34.5925 80.2698L33.6456 81.4332C33.8314 81.5844 33.9933 81.7603 34.1331 81.9651L35.372 81.1195ZM34.5925 80.2698L35.5394 79.1065L34.8658 78.5582L33.9189 79.7215L32.972 80.8849L33.6456 81.4332L34.5925 80.2698ZM33.9189 79.7215L34.8658 78.5582L34.1922 78.0099L33.2453 79.1733L32.2984 80.3366L32.972 80.8849L33.9189 79.7215ZM33.2453 79.1733L34.1922 78.0099C33.9389 77.8037 33.6998 77.5841 33.4745 77.3511L32.3959 78.3935L31.3173 79.4358C31.6258 79.7551 31.953 80.0554 32.2984 80.3366L33.2453 79.1733ZM32.3959 78.3935L33.4745 77.3511L32.874 76.7297L31.7954 77.7721L30.7168 78.8145L31.3173 79.4358L32.3959 78.3935ZM31.7954 77.7721L32.8741 76.7297L32.2736 76.1083L31.1949 77.1507L30.1163 78.1931L30.7168 78.8145L31.7954 77.7721ZM31.1949 77.1507L32.2736 76.1083C32.0027 75.8281 31.7303 75.5494 31.4563 75.2722L30.3896 76.3268L29.3229 77.3814C29.5889 77.6505 29.8534 77.921 30.1163 78.1931L31.1949 77.1507ZM30.3896 76.3268L31.4563 75.2722L30.8488 74.6578L29.7821 75.7124L28.7155 76.767L29.3229 77.3814L30.3896 76.3268ZM29.7821 75.7124L30.8488 74.6578L30.2414 74.0434L29.1747 75.098L28.108 76.1526L28.7155 76.767L29.7821 75.7124ZM29.1747 75.098L30.2414 74.0434C29.9306 73.7291 29.602 73.4331 29.2559 73.1556L28.3176 74.3259L27.3793 75.4962C27.636 75.702 27.8788 75.9208 28.108 76.1526L29.1747 75.098ZM28.3176 74.3259L29.2559 73.1556L28.5778 72.6119L27.6395 73.7822L26.7011 74.9525L27.3793 75.4962L28.3176 74.3259ZM27.6395 73.7822L28.5778 72.6119L27.8996 72.0682L26.9613 73.2385L26.023 74.4087L26.7011 74.9525L27.6395 73.7822ZM26.9613 73.2385L27.8996 72.0682C27.6724 71.886 27.4656 71.685 27.278 71.4643L26.135 72.4356L24.9919 73.4069C25.3034 73.7734 25.6474 74.1076 26.023 74.4087L26.9613 73.2385ZM26.135 72.4356L27.278 71.4643L26.7167 70.8037L25.5737 71.775L24.4306 72.7464L24.9919 73.4069L26.135 72.4356ZM25.5737 71.775L26.7167 70.8037L26.1554 70.1432L25.0123 71.1145L23.8693 72.0858L24.4306 72.7464L25.5737 71.775ZM25.0123 71.1145L26.1554 70.1432C25.8724 69.8102 25.5733 69.493 25.258 69.1917L24.2216 70.276L23.1852 71.3604C23.4253 71.5899 23.6533 71.8316 23.8693 72.0858L25.0123 71.1145ZM24.2216 70.276L25.258 69.1917L24.6332 68.5945L23.5968 69.6789L22.5605 70.7633L23.1852 71.3604L24.2216 70.276ZM23.5968 69.6789L24.6332 68.5945L24.0085 67.9974L22.9721 69.0818L21.9357 70.1662L22.5605 70.7633L23.5968 69.6789ZM22.9721 69.0818L24.0085 67.9974C23.7299 67.7311 23.4509 67.4652 23.1716 67.1996L22.138 68.2867L21.1044 69.3738C21.3819 69.6376 21.659 69.9017 21.9357 70.1662L22.9721 69.0818ZM22.138 68.2867L23.1716 67.1996L22.5452 66.6041L21.5117 67.6912L20.4781 68.7782L21.1044 69.3738L22.138 68.2867ZM21.5117 67.6912L22.5452 66.6041L21.9189 66.0086L20.8853 67.0956L19.8517 68.1827L20.4781 68.7782L21.5117 67.6912ZM20.8853 67.0956L21.9189 66.0086C21.6484 65.7514 21.3807 65.4913 21.1159 65.2283L20.059 66.2928L19.0021 67.3572C19.2823 67.6354 19.5655 67.9106 19.8517 68.1827L20.8853 67.0956ZM20.059 66.2928L21.1159 65.2283L20.5028 64.6196L19.4459 65.684L18.389 66.7484L19.0021 67.3572L20.059 66.2928ZM19.4459 65.684L20.5028 64.6196L19.8897 64.0108L18.8328 65.0752L17.7759 66.1397L18.389 66.7484L19.4459 65.684ZM18.8328 65.0752L19.8897 64.0108C19.7634 63.8855 19.6756 63.7937 19.619 63.731C19.5909 63.6998 19.5773 63.6833 19.5739 63.6791C19.5662 63.6694 19.5912 63.699 19.6258 63.7567L18.3392 64.5279L17.0526 65.2991C17.1618 65.4811 17.3032 65.6426 17.391 65.74C17.499 65.8597 17.6296 65.9944 17.7759 66.1397L18.8328 65.0752ZM18.3392 64.5279L19.6258 63.7567L19.4986 63.5445L18.212 64.3157L16.9254 65.0868L17.0526 65.2991L18.3392 64.5279ZM18.212 64.3157L19.4986 63.5445L19.3714 63.3323L18.0848 64.1034L16.7982 64.8746L16.9254 65.0868L18.212 64.3157ZM18.0848 64.1034L19.3714 63.3323C19.6007 63.7148 19.5929 64.0989 19.5395 64.3407C19.492 64.5564 19.4046 64.6928 19.3791 64.7311C19.328 64.8081 19.3126 64.8036 19.4259 64.7035L18.4323 63.5797L17.4388 62.4559C17.2638 62.6106 17.0464 62.8208 16.8794 63.0724C16.793 63.2027 16.2743 64.0005 16.7982 64.8746L18.0848 64.1034ZM18.4323 63.5797L19.4259 64.7035L20.0744 64.1301L19.0809 63.0063L18.0873 61.8826L17.4388 62.4559L18.4323 63.5797Z" fill="#BBB0B0"/>
<path d="M40.7563 121.8C39.8763 122.12 39.2363 121.88 38.8363 121.08C38.4363 120.52 38.1563 119.84 37.9963 119.04C37.9963 118.72 37.9563 118.4 37.8763 118.08C37.8763 117.84 37.8763 117.56 37.8763 117.24C37.7963 117.08 37.7563 116.92 37.7563 116.76C37.8363 116.12 37.8763 115.52 37.8763 114.96C37.8763 114.4 37.9163 113.84 37.9963 113.28C37.9963 112.16 37.9963 111 37.9963 109.8C38.0763 108.68 38.0763 107.52 37.9963 106.32C37.9963 105.36 37.7163 104.32 37.1563 103.2C36.6763 102.16 36.3163 101 36.0763 99.72C35.9963 99.32 35.9563 98.96 35.9563 98.64C35.9563 98.32 35.9563 98 35.9563 97.68C36.1163 96.8 36.2363 95.92 36.3163 95.04C36.3963 94.08 36.4763 93.16 36.5563 92.28C36.7163 91.4 36.7963 90.52 36.7963 89.64C36.8763 88.76 36.9563 87.92 37.0363 87.12C37.1163 86.24 37.1963 85.4 37.2763 84.6C37.4363 83.72 37.4763 82.84 37.3963 81.96C37.5563 81.08 37.6363 80.24 37.6363 79.44C37.7163 78.56 37.7963 77.72 37.8763 76.92C38.0363 76.28 38.0763 75.68 37.9963 75.12C37.9963 74.48 37.9563 73.88 37.8763 73.32C37.7963 72.92 37.7563 72.6 37.7563 72.36C37.8363 72.04 37.8763 71.72 37.8763 71.4C37.9563 71 37.9963 70.6 37.9963 70.2C37.9963 69.72 38.0363 69.32 38.1163 69V64.32C38.0363 63.28 37.9963 62.28 37.9963 61.32C38.0763 60.28 38.1163 59.24 38.1163 58.2C38.0363 57.4 37.9963 56.6 37.9963 55.8C38.0763 54.92 38.1563 54.08 38.2363 53.28C38.3163 53.04 38.3563 52.8 38.3563 52.56C38.3563 52.32 38.3563 52.12 38.3563 51.96V47.88C38.3563 47.4 38.3963 47.04 38.4763 46.8V45.24C38.3163 45 38.3163 44.68 38.4763 44.28C38.6363 43.56 38.6363 42.84 38.4763 42.12C38.3963 41.96 38.3563 41.8 38.3563 41.64C38.4363 41.4 38.4763 41.16 38.4763 40.92C38.4763 40.52 38.4763 40.16 38.4763 39.84C38.5563 39.44 38.5963 39.04 38.5963 38.64C38.5963 38.32 38.5963 38 38.5963 37.68C38.6763 37.28 38.7563 36.92 38.8363 36.6V36.12C38.8363 35.48 38.8763 34.84 38.9563 34.2C39.0363 33.48 39.1163 32.84 39.1963 32.28L39.9163 27.6C40.0763 26.8 40.2363 26.04 40.3963 25.32C40.6363 24.6 40.9163 23.88 41.2363 23.16C41.7163 21.72 42.5963 20.4 43.8763 19.2C44.2763 18.88 44.6763 18.6 45.0763 18.36C45.5563 18.12 46.0763 18 46.6363 18C46.7163 17.92 46.8363 17.88 46.9962 17.88C47.5563 17.72 48.0763 17.68 48.5563 17.76C49.0363 17.84 49.5163 17.96 49.9963 18.12C51.1163 18.36 51.9563 18.96 52.5163 19.92C52.9163 20.48 53.1163 21 53.1163 21.48C53.1163 21.88 53.1563 22.2 53.2363 22.44C53.4763 23.48 53.5563 24.44 53.4763 25.32C53.4763 25.64 53.4763 25.96 53.4763 26.28C53.5563 26.6 53.6363 26.96 53.7163 27.36C53.8763 27.76 53.9563 28.2 53.9563 28.68C53.9563 29.08 53.9563 29.48 53.9563 29.88C53.9563 30.44 53.9163 31 53.8363 31.56C53.7563 32.04 53.6763 32.56 53.5963 33.12C53.5163 33.44 53.4363 33.8 53.3563 34.2C53.3563 34.52 53.2763 34.88 53.1163 35.28C53.0363 35.84 52.9163 36.4 52.7563 36.96C52.6763 37.52 52.5963 38.08 52.5163 38.64V39.12C52.3563 39.92 52.2363 40.76 52.1563 41.64C52.0763 42.44 51.9563 43.24 51.7963 44.04C51.7163 44.28 51.6763 44.52 51.6763 44.76C51.6763 45 51.6763 45.2 51.6763 45.36C51.6763 45.6 51.6763 45.84 51.6763 46.08C51.6763 46.32 51.6363 46.56 51.5563 46.8C51.4763 47.28 51.4363 47.76 51.4363 48.24C51.4363 48.72 51.3963 49.24 51.3163 49.8C51.3163 49.88 51.3163 49.92 51.3163 49.92C51.3963 49.92 51.4363 49.96 51.4363 50.04C51.4363 50.12 51.4763 50.2 51.5563 50.28C51.7163 50.36 51.8363 50.36 51.9163 50.28C52.2363 50.12 52.5163 49.92 52.7563 49.68C53.6363 48.96 54.5563 48.24 55.5163 47.52C56.4763 46.8 57.4363 46.08 58.3963 45.36C59.2763 44.72 60.1563 44.08 61.0363 43.44C61.9163 42.8 62.7963 42.16 63.6763 41.52C63.7563 41.52 63.8363 41.48 63.9163 41.4C64.7163 40.76 65.4763 40.12 66.1963 39.48C66.9963 38.84 67.7563 38.2 68.4763 37.56C69.3563 36.76 70.1963 35.96 70.9963 35.16C71.8763 34.36 72.6763 33.52 73.3963 32.64C73.5563 32.48 73.7163 32.32 73.8763 32.16C74.0363 32 74.1963 31.84 74.3563 31.68L78.3163 27.36C78.9563 26.64 79.7963 25.88 80.8363 25.08C81.2363 24.76 81.6763 24.56 82.1563 24.48C82.3163 24.48 82.4363 24.48 82.5163 24.48C82.5963 24.4 82.6763 24.4 82.7563 24.48C83.1563 24.48 83.5163 24.52 83.8363 24.6C84.1563 24.6 84.4763 24.64 84.7963 24.72C85.0363 24.8 85.3963 24.84 85.8763 24.84C86.2763 24.68 86.5563 24.8 86.7163 25.2C86.7163 25.28 86.7963 25.32 86.9563 25.32C87.0363 25.32 87.2363 25.24 87.5563 25.08C87.7963 25.08 87.9163 25.16 87.9163 25.32C88.1563 25.8 88.5163 26.16 88.9963 26.4C88.9963 26.48 88.9963 26.52 88.9963 26.52C89.0763 26.52 89.1163 26.52 89.1163 26.52V26.88C89.1163 27.28 89.2763 27.52 89.5963 27.6C89.6763 27.6 89.7163 27.64 89.7163 27.72C89.7963 27.72 89.8363 27.72 89.8363 27.72C89.9963 27.8 90.1563 28 90.3163 28.32C90.3163 28.88 90.4363 29.48 90.6763 30.12C91.1563 31.48 91.1163 32.8 90.5563 34.08C89.9963 35.52 89.1963 36.92 88.1563 38.28L85.1563 42.24C84.8363 42.64 84.4763 43.04 84.0763 43.44C83.6763 43.84 83.2763 44.2 82.8763 44.52C82.4763 44.92 82.1963 45.24 82.0363 45.48C81.8763 45.64 81.7163 45.8 81.5563 45.96C81.3963 46.12 81.2363 46.28 81.0763 46.44C80.6763 47 80.1963 47.44 79.6363 47.76C79.2363 48.08 78.7963 48.4 78.3163 48.72C77.8363 48.96 77.3963 49.28 76.9963 49.68C76.5963 50 76.1163 50.28 75.5563 50.52C75.0763 50.68 74.5963 50.84 74.1163 51C73.7163 51.24 73.2363 51.28 72.6763 51.12H72.5563C71.5163 50.8 70.4363 51 69.3163 51.72C69.0763 51.88 68.7963 52.04 68.4763 52.2C68.2363 52.36 67.9563 52.52 67.6363 52.68C67.0763 53.16 66.4363 53.6 65.7163 54C65.3963 54.16 65.1163 54.36 64.8763 54.6C64.6363 54.76 64.3963 54.92 64.1563 55.08C63.5163 55.56 62.8363 56.04 62.1163 56.52C61.3963 56.92 60.7163 57.36 60.0763 57.84L57.6763 59.28C57.4363 59.44 57.1563 59.64 56.8363 59.88C56.5963 60.04 56.3163 60.24 55.9963 60.48C55.8363 60.64 55.8363 60.8 55.9963 60.96L57.4363 62.04C58.4763 62.6 59.4763 63.24 60.4363 63.96C61.3963 64.6 62.3563 65.28 63.3163 66C64.1963 66.64 65.0363 67.32 65.8363 68.04C66.7163 68.68 67.5963 69.32 68.4763 69.96C68.6363 70.04 68.7963 70.16 68.9563 70.32C69.1963 70.48 69.3563 70.64 69.4363 70.8C70.3163 71.52 71.1163 72.24 71.8363 72.96C72.6363 73.6 73.4363 74.28 74.2363 75C75.5963 76.28 76.9963 77.52 78.4363 78.72C79.8763 79.84 81.2363 81.08 82.5163 82.44L83.5963 83.52C84.0763 84.08 84.5563 84.6 85.0363 85.08C85.5963 85.48 86.1563 85.92 86.7163 86.4C87.1963 86.64 87.5563 86.96 87.7963 87.36L88.1563 87.72C88.7163 88.28 89.0763 88.88 89.2363 89.52C89.3963 90.16 89.4363 90.88 89.3563 91.68L89.2363 92.52C89.3163 93.08 89.1563 93.52 88.7563 93.84C88.5163 93.92 88.3963 94.24 88.3963 94.8C88.3963 95.12 88.2363 95.28 87.9163 95.28C87.5963 95.36 87.3163 95.52 87.0763 95.76C86.5163 96.24 85.8363 96.6 85.0363 96.84L84.0763 97.2C83.7563 97.36 83.5163 97.4 83.3563 97.32C83.0363 97.16 82.6763 97 82.2763 96.84C81.8763 96.68 81.4763 96.56 81.0763 96.48C80.9163 96.4 80.6763 96.2 80.3563 95.88C79.9563 95.48 79.5563 95.08 79.1563 94.68C78.7563 94.2 78.3563 93.72 77.9563 93.24C77.3963 92.6 76.7963 91.96 76.1563 91.32C75.5163 90.68 74.8763 90.08 74.2363 89.52L70.3963 86.28C69.5163 85.4 68.5963 84.6 67.6363 83.88C66.6763 83.16 65.6763 82.4 64.6363 81.6C64.4763 81.44 64.1163 81.28 63.5563 81.12C63.3163 81.12 63.0763 81.08 62.8362 81C62.5963 80.84 62.3563 80.72 62.1163 80.64C61.5563 80.4 60.9963 80.16 60.4363 79.92C59.9563 79.68 59.4363 79.4 58.8763 79.08C58.3963 78.76 57.9163 78.44 57.4363 78.12C56.9563 77.8 56.4763 77.48 55.9963 77.16C55.4363 76.68 54.7963 76.24 54.0763 75.84C53.4363 75.36 52.7963 74.92 52.1563 74.52C52.0763 74.44 51.9563 74.4 51.7963 74.4C51.7163 74.4 51.5963 74.36 51.4363 74.28C51.1163 74.12 50.8763 74.24 50.7163 74.64C50.5563 74.8 50.3963 75.12 50.2363 75.6L49.8763 77.52C49.7963 78.24 49.6763 79 49.5163 79.8C49.4363 80.52 49.3563 81.24 49.2763 81.96C49.1963 82.52 49.1163 83.08 49.0363 83.64C48.9563 84.12 48.8763 84.6 48.7962 85.08C48.7163 85.56 48.6363 86.04 48.5563 86.52C48.4763 87 48.3563 87.48 48.1963 87.96C48.1163 88.28 48.0763 88.64 48.0763 89.04C48.0763 89.36 48.0763 89.72 48.0763 90.12V94.08C48.0763 95.04 47.9963 96 47.8363 96.96C47.6763 97.84 47.5163 98.72 47.3563 99.6C47.1163 101.2 46.5163 102.52 45.5563 103.56C44.9963 104.36 44.5963 105.28 44.3563 106.32C44.0363 107.76 43.7963 109.28 43.6363 110.88C43.5563 111.2 43.5163 111.52 43.5163 111.84C43.5163 112.24 43.4763 112.64 43.3963 113.04C43.3163 113.36 43.2763 113.72 43.2763 114.12C43.2763 114.6 43.2363 115.04 43.1563 115.44C43.0763 116.08 42.9963 116.72 42.9163 117.36C42.9163 118.08 42.8363 118.76 42.6763 119.4C42.5963 119.96 42.3563 120.48 41.9563 120.96C41.6363 121.36 41.2363 121.64 40.7563 121.8Z" fill="#D7C9C9"/>
</svg>
